<svg width="152" height="46" viewBox="0 0 152 46" fill="none" xmlns="http://www.w3.org/2000/svg">
<path d="M2.68078 5.1C2.68078 3.82 3.24745 2.78 4.38078 1.98C5.51411 1.18 7.02745 0.779999 8.92078 0.779999C10.0541 0.779999 11.0474 0.913332 11.9008 1.18C12.7541 1.43333 13.4074 1.78667 13.8608 2.24C14.7674 3.13333 15.2208 4.16 15.2208 5.32C15.2208 6.48 14.7541 7.45333 13.8208 8.24C12.9008 9.01333 11.7208 9.4 10.2808 9.4C10.1208 9.4 9.88078 9.38667 9.56078 9.36L9.74078 7.9C11.5141 7.9 12.4008 7.06667 12.4008 5.4C12.4008 4.62667 12.0741 3.97333 11.4208 3.44C10.7408 2.88 9.72745 2.6 8.38078 2.6C7.03411 2.6 5.96745 2.94667 5.18078 3.64C4.71411 4.04 4.48078 4.47333 4.48078 4.94C4.48078 5.82 5.00745 6.32 6.06078 6.44L5.82078 7.92C4.90078 7.88 4.14745 7.58667 3.56078 7.04C2.97411 6.49333 2.68078 5.84667 2.68078 5.1ZM9.72078 3.64L8.84078 9.36C10.5341 10.1733 11.3808 11.3733 11.3808 12.96C11.3808 14.12 11.0741 14.94 10.4608 15.42C9.86078 15.8867 9.13411 16.12 8.28078 16.12C7.42745 16.12 6.76078 15.9 6.28078 15.46C5.80078 15.02 5.56078 14.4267 5.56078 13.68C5.56078 13.5067 5.56745 13.3733 5.58078 13.28L6.78078 4.02C7.47411 3.68667 8.06078 3.52 8.54078 3.52C9.02078 3.52 9.41411 3.56 9.72078 3.64ZM8.86078 14.3C9.18078 14.3 9.45412 14.1867 9.68078 13.96C9.92078 13.7333 10.0408 13.3533 10.0408 12.82C10.0408 11.8733 9.58745 11.1267 8.68078 10.58C8.46745 12.14 8.36078 13.08 8.36078 13.4C8.36078 13.7067 8.40745 13.9333 8.50078 14.08C8.60745 14.2267 8.72745 14.3 8.86078 14.3ZM23.7036 9.88C24.7569 10.6533 25.2836 11.5667 25.2836 12.62C25.2836 13.6733 24.8703 14.52 24.0436 15.16C23.2169 15.8 22.1769 16.12 20.9236 16.12C20.1103 16.12 19.4303 15.92 18.8836 15.52C18.3503 15.1067 18.0836 14.6 18.0836 14C18.0836 13.4 18.2836 12.9267 18.6836 12.58C19.0836 12.22 19.5836 12 20.1836 11.92C19.9036 12.32 19.7636 12.7067 19.7636 13.08C19.7636 13.44 19.8903 13.7333 20.1436 13.96C20.3969 14.1867 20.7169 14.3 21.1036 14.3C21.4903 14.3 21.8103 14.16 22.0636 13.88C22.3169 13.5867 22.4436 13.2533 22.4436 12.88C22.4436 12.2667 22.1569 11.72 21.5836 11.24C21.2369 10.96 20.8636 10.7 20.4636 10.46C20.0636 10.2067 19.8503 10.0733 19.8236 10.06C19.7703 10.02 19.7169 9.98667 19.6636 9.96C19.4236 10.24 19.0769 10.6267 18.6236 11.12C18.1703 11.6 17.8103 11.9867 17.5436 12.28C16.7969 13.0933 16.3769 13.7733 16.2836 14.32C16.2569 14.4267 16.2436 14.6333 16.2436 14.94C16.2436 15.2333 16.3303 15.54 16.5036 15.86C16.6903 16.18 16.9103 16.42 17.1636 16.58C17.4169 16.74 17.6636 16.8667 17.9036 16.96C18.1569 17.0667 18.3703 17.14 18.5436 17.18C18.7303 17.22 18.8236 17.2467 18.8236 17.26C18.8236 17.3533 18.6769 17.46 18.3836 17.58C17.8369 17.78 17.2636 17.88 16.6636 17.88C16.0769 17.88 15.5036 17.6667 14.9436 17.24C14.1836 16.6533 13.8036 15.8733 13.8036 14.9C13.8036 14.3 13.9569 13.7067 14.2636 13.12C14.8103 12.08 16.0903 10.6533 18.1036 8.84C17.6103 8.34667 17.3636 7.82 17.3636 7.26C17.3636 6.7 17.5703 6.22667 17.9836 5.84C18.4103 5.45333 18.9103 5.26 19.4836 5.26C20.0036 5.26 20.4569 5.46667 20.8436 5.88C21.0969 6.16 21.2236 6.51333 21.2236 6.94C21.2236 7.36667 21.0836 7.84667 20.8036 8.38C22.2303 9.02 23.1969 9.52 23.7036 9.88ZM19.3636 7.62C19.6836 7.28667 19.8436 7.04667 19.8436 6.9C19.8436 6.56667 19.6969 6.38667 19.4036 6.36C19.0703 6.36 18.9036 6.54667 18.9036 6.92C18.9036 7.14667 19.0569 7.38 19.3636 7.62ZM29.0766 21.94C28.3166 21.94 27.6632 21.7067 27.1166 21.24C26.5699 20.7867 26.2966 20.12 26.2966 19.24C26.2966 18.16 26.8432 17.1067 27.9366 16.08C27.1632 16.0133 26.5432 15.76 26.0766 15.32C25.6099 14.88 25.3766 14.26 25.3766 13.46C25.3766 13.0867 25.4232 12.5267 25.5166 11.78C25.6099 11.0333 25.7099 10.2267 25.8166 9.36C25.9232 8.49333 26.0366 7.57333 26.1566 6.6C26.5699 6.45333 26.9499 6.38 27.2966 6.38C27.6432 6.38 27.9032 6.39333 28.0766 6.42C28.2499 6.44667 28.4166 6.54667 28.5766 6.72C28.7366 6.89333 28.8166 7.14 28.8166 7.46L28.1566 12.56C28.1299 12.7733 28.1166 12.92 28.1166 13C28.1166 13.7867 28.4766 14.18 29.1966 14.18C29.8499 14.18 30.3832 13.8733 30.7966 13.26C30.8366 12.9533 30.9366 12.0733 31.0966 10.62C31.2566 9.15333 31.3899 8.01333 31.4966 7.2C31.6166 6.94667 31.8632 6.74667 32.2366 6.6C32.6232 6.45333 32.9366 6.38 33.1766 6.38C33.6032 6.38 33.9899 6.43333 34.3366 6.54L33.3966 13.92C34.9566 14.2 35.8899 15.2733 36.1966 17.14C36.1432 17.3933 35.8899 17.7933 35.4366 18.34C35.1699 16.6733 34.4366 15.66 33.2366 15.3L32.9166 17.8C32.7699 19 32.3899 19.9867 31.7766 20.76C31.1632 21.5467 30.2632 21.94 29.0766 21.94ZM27.8566 18.86C27.8566 19.3 27.9632 19.6267 28.1766 19.84C28.3899 20.0533 28.6699 20.16 29.0166 20.16C29.3766 20.16 29.6499 20.0133 29.8366 19.72C30.0232 19.4267 30.1699 18.84 30.2766 17.96L30.5366 15.76C28.7899 16.6667 27.8966 17.7 27.8566 18.86ZM41.6231 9.22C41.6231 8.35333 41.2365 7.92 40.4631 7.92C39.8898 7.92 39.3765 8.24667 38.9231 8.9C38.4431 9.60667 38.2031 10.4333 38.2031 11.38C38.2031 12.3267 38.4098 13.06 38.8231 13.58C39.2498 14.0867 39.8298 14.34 40.5631 14.34C41.4431 14.34 42.3698 13.98 43.3431 13.26C44.3298 12.54 45.1231 11.6467 45.7231 10.58C45.9898 10.78 46.2498 11.1467 46.5031 11.68C46.1165 12.4533 45.3965 13.32 44.3431 14.28C43.7965 14.7867 43.1165 15.2133 42.3031 15.56C41.4231 15.9333 40.5431 16.12 39.6631 16.12C38.4765 16.12 37.4698 15.7133 36.6431 14.9C35.8298 14.0867 35.4231 13.0267 35.4231 11.72C35.4231 10.1333 35.9565 8.84667 37.0231 7.86C38.0898 6.87333 39.2831 6.38 40.6031 6.38C41.6298 6.38 42.4431 6.59333 43.0431 7.02C43.6431 7.44667 43.9431 8.00667 43.9431 8.7C43.9431 9.15333 43.7831 9.54667 43.4631 9.88C42.8765 10.4667 42.1631 10.76 41.3231 10.76C41.5231 10.0933 41.6231 9.58 41.6231 9.22ZM50.1981 13.72L50.6781 9.3C50.6781 8.94 50.5848 8.64 50.3981 8.4C50.2115 8.16 49.9115 8.04 49.4981 8.04C49.0848 8.04 48.7315 8.20667 48.4381 8.54C48.1581 8.86 47.9515 9.28667 47.8181 9.82C47.7248 10.58 47.5848 11.6933 47.3981 13.16C47.2115 14.6133 47.0915 15.56 47.0381 16H44.3781C45.3381 7.82667 45.9181 2.80667 46.1181 0.94C46.3981 0.833333 46.7781 0.779999 47.2581 0.779999C48.2981 0.779999 48.8181 1.08667 48.8181 1.7V1.82C48.5915 3.91333 48.3515 5.75333 48.0981 7.34C48.8048 6.7 49.6048 6.38 50.4981 6.38C51.3915 6.38 52.0981 6.60667 52.6181 7.06C53.1381 7.51333 53.3981 8.08667 53.3981 8.78C53.3981 8.96667 53.3581 9.31333 53.2781 9.82C52.9715 11.82 52.8181 12.9933 52.8181 13.34C52.8181 13.9667 53.0248 14.28 53.4381 14.28C53.7848 14.28 54.1515 14.0533 54.5381 13.6C54.9381 13.1333 55.2581 12.42 55.4981 11.46C55.9515 11.94 56.2248 12.32 56.3181 12.6C55.6248 14.92 54.3981 16.08 52.6381 16.08C51.8115 16.08 51.1981 15.8267 50.7981 15.32C50.3981 14.8133 50.1981 14.28 50.1981 13.72ZM59.9195 6.38C61.1462 6.38 62.1662 6.77333 62.9795 7.56C63.8062 8.34667 64.2195 9.30667 64.2195 10.44C64.2195 12.16 63.7129 13.54 62.6995 14.58C61.6995 15.6067 60.4862 16.12 59.0595 16.12C57.6329 16.12 56.4995 15.7133 55.6595 14.9C54.8329 14.0867 54.4195 13.08 54.4195 11.88C54.4195 10.2 54.9329 8.86667 55.9595 7.88C56.9995 6.88 58.3195 6.38 59.9195 6.38ZM59.5195 8C58.8929 8 58.3662 8.36 57.9395 9.08C57.5129 9.8 57.2795 10.7067 57.2395 11.8C57.2395 12.5733 57.3929 13.2133 57.6995 13.72C58.0195 14.2267 58.4995 14.48 59.1395 14.48C59.7795 14.48 60.3129 14.1267 60.7395 13.42C61.1795 12.7133 61.3995 11.9067 61.3995 11C61.3995 10.0933 61.2462 9.37333 60.9395 8.84C60.6329 8.28 60.1595 8 59.5195 8ZM67.7502 16.14C66.9368 16.14 66.2968 15.9133 65.8302 15.46C65.3635 14.9933 65.1302 14.36 65.1302 13.56C65.1302 13.3467 65.4902 10.18 66.2102 4.06C66.3968 2.48667 66.8968 1.49333 67.7102 1.08C68.0835 0.879999 68.5302 0.779999 69.0502 0.779999C70.8102 0.779999 71.6902 1.59333 71.6902 3.22C71.6902 3.35333 71.6835 3.49333 71.6702 3.64C71.5368 5.42667 70.4168 7.24667 68.3102 9.1C68.2435 9.75333 68.1702 10.3867 68.0902 11C67.9302 12.3733 67.8502 13.1333 67.8502 13.28C67.8502 13.9733 68.1502 14.32 68.7502 14.32C69.4035 14.32 70.0102 13.9467 70.5702 13.2C71.1435 12.44 71.5835 11.4733 71.8902 10.3C72.0102 10.34 72.1768 10.4533 72.3902 10.64C72.6035 10.8133 72.7502 10.9667 72.8302 11.1C72.6168 12.2067 72.1368 13.2667 71.3902 14.28C71.0168 14.8 70.5435 15.2267 69.9702 15.56C69.3168 15.9467 68.5768 16.14 67.7502 16.14ZM68.5302 7.1C69.7568 5.75333 70.3702 4.54667 70.3702 3.48C70.3702 2.84 70.1302 2.52 69.6502 2.52C69.3435 2.54667 69.1368 2.74667 69.0302 3.12C68.9368 3.49333 68.8435 4.1 68.7502 4.94C68.6702 5.78 68.6168 6.3 68.5902 6.5L68.5302 7.1ZM76.4234 6.38C77.6501 6.38 78.6701 6.77333 79.4834 7.56C80.3101 8.34667 80.7234 9.30667 80.7234 10.44C80.7234 12.16 80.2168 13.54 79.2034 14.58C78.2034 15.6067 76.9901 16.12 75.5634 16.12C74.1368 16.12 73.0034 15.7133 72.1634 14.9C71.3368 14.0867 70.9234 13.08 70.9234 11.88C70.9234 10.2 71.4368 8.86667 72.4634 7.88C73.5034 6.88 74.8234 6.38 76.4234 6.38ZM76.0234 8C75.3968 8 74.8701 8.36 74.4434 9.08C74.0168 9.8 73.7834 10.7067 73.7434 11.8C73.7434 12.5733 73.8968 13.2133 74.2034 13.72C74.5234 14.2267 75.0034 14.48 75.6434 14.48C76.2834 14.48 76.8168 14.1267 77.2434 13.42C77.6834 12.7133 77.9034 11.9067 77.9034 11C77.9034 10.0933 77.7501 9.37333 77.4434 8.84C77.1368 8.28 76.6634 8 76.0234 8ZM86.9541 6.38C87.6874 6.38 88.3607 6.5 88.9741 6.74C89.3874 6.48667 89.8207 6.36 90.2741 6.36C90.7274 6.36 91.0874 6.42 91.3541 6.54L90.6341 12.18C91.6207 11.42 92.3674 10.7267 92.8741 10.1L93.4541 11.32C92.6941 12.12 91.6807 12.9733 90.4141 13.88L89.8741 18.06C89.7274 19.3133 89.3141 20.2733 88.6341 20.94C87.9674 21.62 87.1007 21.96 86.0341 21.96C85.4207 21.96 84.8207 21.76 84.2341 21.36C83.6207 20.9333 83.3141 20.2467 83.3141 19.3C83.3141 18.14 83.8674 17.08 84.9741 16.12C84.0274 16.0533 83.2141 15.66 82.5341 14.94C81.8541 14.22 81.5141 13.28 81.5141 12.12C81.5141 10.3733 82.0274 8.98 83.0541 7.94C84.0807 6.9 85.3807 6.38 86.9541 6.38ZM87.2541 7.94C86.4007 7.94 85.7207 8.26667 85.2141 8.92C84.7207 9.56 84.4274 10.52 84.3341 11.8C84.3207 11.92 84.3141 12.0333 84.3141 12.14C84.3141 12.7933 84.4674 13.3133 84.7741 13.7C85.0941 14.0867 85.5007 14.28 85.9941 14.28C86.8341 14.28 87.4674 13.6933 87.8941 12.52L88.3941 8.18C87.9807 8.02 87.6007 7.94 87.2541 7.94ZM84.8541 19C84.8541 19.36 84.9541 19.64 85.1541 19.84C85.3674 20.0533 85.6074 20.16 85.8741 20.16C86.6207 20.16 87.0541 19.6867 87.1741 18.74L87.5141 15.74C85.7407 16.7933 84.8541 17.88 84.8541 19ZM95.6586 21.94C94.8986 21.94 94.2453 21.7067 93.6986 21.24C93.1519 20.7867 92.8786 20.12 92.8786 19.24C92.8786 18.16 93.4253 17.1067 94.5186 16.08C93.7453 16.0133 93.1253 15.76 92.6586 15.32C92.1919 14.88 91.9586 14.26 91.9586 13.46C91.9586 13.0867 92.0053 12.5267 92.0986 11.78C92.1919 11.0333 92.2919 10.2267 92.3986 9.36C92.5053 8.49333 92.6186 7.57333 92.7386 6.6C93.1519 6.45333 93.5319 6.38 93.8786 6.38C94.2253 6.38 94.4853 6.39333 94.6586 6.42C94.8319 6.44667 94.9986 6.54667 95.1586 6.72C95.3186 6.89333 95.3986 7.14 95.3986 7.46L94.7386 12.56C94.7119 12.7733 94.6986 12.92 94.6986 13C94.6986 13.7867 95.0586 14.18 95.7786 14.18C96.4319 14.18 96.9653 13.8733 97.3786 13.26C97.4186 12.9533 97.5186 12.0733 97.6786 10.62C97.8386 9.15333 97.9719 8.01333 98.0786 7.2C98.1986 6.94667 98.4453 6.74667 98.8186 6.6C99.2053 6.45333 99.5186 6.38 99.7586 6.38C100.185 6.38 100.572 6.43333 100.919 6.54L99.9786 13.92C101.539 14.2 102.472 15.2733 102.779 17.14C102.725 17.3933 102.472 17.7933 102.019 18.34C101.752 16.6733 101.019 15.66 99.8186 15.3L99.4986 17.8C99.3519 19 98.9719 19.9867 98.3586 20.76C97.7453 21.5467 96.8453 21.94 95.6586 21.94ZM94.4386 18.86C94.4386 19.3 94.5453 19.6267 94.7586 19.84C94.9719 20.0533 95.2519 20.16 95.5986 20.16C95.9586 20.16 96.2319 20.0133 96.4186 19.72C96.6053 19.4267 96.7519 18.84 96.8586 17.96L97.1186 15.76C95.3719 16.6667 94.4786 17.7 94.4386 18.86ZM112.28 16.12C110.213 16.12 108.693 15.5933 107.72 14.54C106.76 13.4867 106.28 12.1 106.28 10.38C106.28 8.64667 106.573 7.07333 107.16 5.66C107.76 4.23333 108.646 3.06667 109.82 2.16C110.993 1.24 112.26 0.779999 113.62 0.779999C114.993 0.779999 116.066 1.11333 116.84 1.78C117.626 2.43333 118.02 3.32 118.02 4.44C118.02 5.54667 117.673 6.46667 116.98 7.2C116.3 7.93333 115.5 8.3 114.58 8.3C113.66 8.3 112.946 8.1 112.44 7.7C111.933 7.28667 111.68 6.85333 111.68 6.4C111.68 5.93333 111.86 5.57333 112.22 5.32C112.593 5.05333 113.133 4.92 113.84 4.92C113.666 5.09333 113.58 5.32667 113.58 5.62C113.58 5.9 113.666 6.14667 113.84 6.36C114.013 6.57333 114.28 6.68 114.64 6.68C115 6.68 115.36 6.49333 115.72 6.12C116.08 5.73333 116.26 5.22667 116.26 4.6C116.26 3.97333 116.066 3.47333 115.68 3.1C115.306 2.72667 114.773 2.54 114.08 2.54C113.173 2.54 112.346 2.90667 111.6 3.64C110.866 4.37333 110.306 5.30667 109.92 6.44C109.533 7.57333 109.34 8.76667 109.34 10.02C109.34 11.1 109.573 12.0533 110.04 12.88C110.28 13.3067 110.633 13.6467 111.1 13.9C111.58 14.1533 112.14 14.28 112.78 14.28C113.873 14.28 114.926 13.9333 115.94 13.24C116.953 12.5333 117.806 11.6267 118.5 10.52L119.18 11.74C118.393 13.02 117.406 14.0733 116.22 14.9C115.033 15.7133 113.72 16.12 112.28 16.12ZM126.744 16.1C125.517 16.1 124.704 15.6733 124.304 14.82C123.61 15.6867 122.717 16.12 121.624 16.12C120.544 16.12 119.63 15.7533 118.884 15.02C118.15 14.2867 117.784 13.32 117.784 12.12C117.784 10.3733 118.297 8.98 119.324 7.94C120.35 6.9 121.65 6.38 123.224 6.38C123.264 6.38 123.304 6.38 123.344 6.38C124.01 6.38 124.624 6.49333 125.184 6.72C125.544 6.49333 125.977 6.38 126.484 6.38C127.004 6.38 127.377 6.44667 127.604 6.58C127.484 7.56667 127.357 8.54 127.224 9.5C127.09 10.4467 126.997 11.12 126.944 11.52C126.824 12.4267 126.764 13.08 126.764 13.48C126.764 14.0133 126.977 14.28 127.404 14.28C127.737 14.28 128.09 14.06 128.464 13.62C128.837 13.1667 129.164 12.46 129.444 11.5C129.83 11.8467 130.097 12.2333 130.244 12.66C129.857 13.9267 129.337 14.82 128.684 15.34C128.03 15.8467 127.384 16.1 126.744 16.1ZM123.524 7.94C122.67 7.94 121.99 8.26667 121.484 8.92C120.99 9.56 120.697 10.52 120.604 11.8C120.59 11.92 120.584 12.0333 120.584 12.14C120.584 12.7933 120.737 13.3133 121.044 13.7C121.364 14.0867 121.77 14.28 122.264 14.28C123.104 14.28 123.737 13.6867 124.164 12.5L124.644 8.18C124.257 8.02 123.884 7.94 123.524 7.94ZM134.701 9C134.701 8.41333 134.427 8.12 133.881 8.12C133.347 8.12 132.921 8.46667 132.601 9.16C134.041 10.2933 134.761 11.5667 134.761 12.98C134.761 14.0067 134.474 14.7867 133.901 15.32C133.327 15.8533 132.607 16.12 131.741 16.12C130.874 16.12 130.241 15.8533 129.841 15.32C129.441 14.7733 129.241 14.0867 129.241 13.26C129.241 13.0067 129.247 12.82 129.261 12.7L129.961 6.6C130.441 6.45333 130.927 6.38 131.421 6.38C132.234 6.38 132.641 6.68 132.641 7.28V7.32C133.174 6.69333 133.854 6.38 134.681 6.38C135.281 6.38 135.747 6.52 136.081 6.8C136.414 7.06667 136.581 7.42667 136.581 7.88C136.581 8.33333 136.407 8.70667 136.061 9C135.727 9.28 135.287 9.42 134.741 9.42C134.714 9.42 134.687 9.42 134.661 9.42C134.687 9.27333 134.701 9.13333 134.701 9ZM133.461 12.88C133.461 12.1067 133.061 11.3333 132.261 10.56C132.021 12.48 131.901 13.4467 131.901 13.46C131.901 14.02 132.127 14.3 132.581 14.3C133.167 14.3 133.461 13.8267 133.461 12.88ZM140.763 11.52C141.589 11.3467 142.203 11.0133 142.603 10.52C143.016 10.0267 143.223 9.55333 143.223 9.1C143.223 8.63333 143.096 8.32 142.843 8.16C142.603 7.98667 142.336 7.9 142.043 7.9C141.416 7.9 140.863 8.25333 140.383 8.96C139.916 9.65333 139.683 10.4867 139.683 11.46C139.683 12.42 139.909 13.14 140.363 13.62C140.829 14.0867 141.403 14.32 142.083 14.32C143.083 14.32 144.043 13.9733 144.963 13.28C145.883 12.5867 146.629 11.68 147.203 10.56C147.496 10.84 147.763 11.1867 148.003 11.6C147.563 12.6 146.783 13.58 145.663 14.54C145.103 15.0067 144.436 15.3867 143.663 15.68C142.903 15.9733 142.116 16.12 141.303 16.12C139.969 16.12 138.916 15.7133 138.143 14.9C137.316 14.02 136.903 12.8933 136.903 11.52C136.903 10.1467 137.416 8.94667 138.443 7.92C139.483 6.89333 140.723 6.38 142.163 6.38C143.189 6.38 144.023 6.60667 144.663 7.06C145.303 7.5 145.629 8.1 145.643 8.86C145.643 9.88667 145.229 10.72 144.403 11.36C143.589 12 142.469 12.4467 141.043 12.7L140.763 11.52ZM36.9603 46H30.4603V44.28L32.2003 43.48V34.24L30.4603 33.44V31.72H36.9603V33.44L35.2203 34.24V43.48L36.9603 44.28V46ZM43.5538 31.72C44.8471 31.72 45.9138 31.88 46.7538 32.2C47.5938 32.5067 48.2204 32.98 48.6338 33.62C49.0471 34.2467 49.2538 35.04 49.2538 36C49.2538 36.6533 49.1271 37.2267 48.8738 37.72C48.6338 38.2 48.3071 38.6133 47.8938 38.96C47.4938 39.2933 47.0604 39.5667 46.5938 39.78L50.7938 46H47.4338L44.0338 40.52H42.4138V46H39.3938V31.72H43.5538ZM43.3338 34.2H42.4138V38.06H43.3938C44.0604 38.06 44.6004 37.9867 45.0138 37.84C45.4271 37.6933 45.7271 37.4733 45.9138 37.18C46.1004 36.8733 46.1938 36.5067 46.1938 36.08C46.1938 35.6267 46.0871 35.2667 45.8738 35C45.6738 34.72 45.3604 34.52 44.9338 34.4C44.5204 34.2667 43.9871 34.2 43.3338 34.2ZM60.8169 46H52.5969V31.72H60.8169V34.2H55.6169V37.34H60.4569V39.82H55.6169V43.5H60.8169V46ZM63.7883 46V31.72H66.8083V43.5H72.6083V46H63.7883ZM83.8369 46L82.7969 42.6H77.5969L76.5569 46H73.2969L78.3369 31.66H82.0369L87.0969 46H83.8369ZM81.0369 36.74C80.9702 36.5133 80.8835 36.2267 80.7769 35.88C80.6702 35.5333 80.5635 35.18 80.4569 34.82C80.3502 34.46 80.2635 34.1467 80.1969 33.88C80.1302 34.1467 80.0369 34.48 79.9169 34.88C79.8102 35.2667 79.7035 35.64 79.5969 36C79.5035 36.3467 79.4302 36.5933 79.3769 36.74L78.3569 40.06H82.0769L81.0369 36.74ZM101.565 46H97.7255L91.5055 35.2H91.4255C91.4388 35.5333 91.4521 35.8733 91.4655 36.22C91.4788 36.5533 91.4921 36.8933 91.5055 37.24C91.5321 37.5733 91.5521 37.9133 91.5655 38.26C91.5788 38.5933 91.5921 38.9333 91.6055 39.28V46H88.9055V31.72H92.7255L98.9255 42.42H98.9855C98.9721 42.0867 98.9588 41.76 98.9455 41.44C98.9321 41.1067 98.9188 40.78 98.9055 40.46C98.9055 40.1267 98.8988 39.8 98.8855 39.48C98.8721 39.1467 98.8588 38.8133 98.8455 38.48V31.72H101.565V46ZM117.015 38.72C117.015 40.32 116.708 41.66 116.095 42.74C115.482 43.82 114.588 44.6333 113.415 45.18C112.255 45.7267 110.855 46 109.215 46H105.175V31.72H109.655C111.148 31.72 112.442 31.9867 113.535 32.52C114.642 33.0533 115.495 33.84 116.095 34.88C116.708 35.9067 117.015 37.1867 117.015 38.72ZM113.875 38.8C113.875 37.7467 113.722 36.88 113.415 36.2C113.108 35.52 112.648 35.02 112.035 34.7C111.435 34.3667 110.695 34.2 109.815 34.2H108.195V43.5H109.495C110.975 43.5 112.075 43.1067 112.795 42.32C113.515 41.5333 113.875 40.36 113.875 38.8Z" fill="#FFFDFD"/>
<g filter="url(#filter0_d_74_37)">
<line x1="4" y1="26.5" x2="148" y2="26.5" stroke="white"/>
</g>
<defs>
<filter id="filter0_d_74_37" x="0" y="26" width="152" height="9" filterUnits="userSpaceOnUse" color-interpolation-filters="sRGB">
<feFlood flood-opacity="0" result="BackgroundImageFix"/>
<feColorMatrix in="SourceAlpha" type="matrix" values="0 0 0 0 0 0 0 0 0 0 0 0 0 0 0 0 0 0 127 0" result="hardAlpha"/>
<feOffset dy="4"/>
<feGaussianBlur stdDeviation="2"/>
<feComposite in2="hardAlpha" operator="out"/>
<feColorMatrix type="matrix" values="0 0 0 0 0 0 0 0 0 0 0 0 0 0 0 0 0 0 0.25 0"/>
<feBlend mode="normal" in2="BackgroundImageFix" result="effect1_dropShadow_74_37"/>
<feBlend mode="normal" in="SourceGraphic" in2="effect1_dropShadow_74_37" result="shape"/>
</filter>
</defs>
</svg>
