<svg width="371" height="22" viewBox="0 0 371 22" fill="none" xmlns="http://www.w3.org/2000/svg">
<path d="M15.8578 2.04V16H13.0578V6.92L9.31781 16H7.19781L3.43781 6.92V16H0.637813V2.04H3.81781L8.25781 12.42L12.6978 2.04H15.8578ZM20.0461 3.6C19.5528 3.6 19.1394 3.44667 18.8061 3.14C18.4861 2.82 18.3261 2.42667 18.3261 1.96C18.3261 1.49333 18.4861 1.10667 18.8061 0.799999C19.1394 0.479999 19.5528 0.319999 20.0461 0.319999C20.5394 0.319999 20.9461 0.479999 21.2661 0.799999C21.5994 1.10667 21.7661 1.49333 21.7661 1.96C21.7661 2.42667 21.5994 2.82 21.2661 3.14C20.9461 3.44667 20.5394 3.6 20.0461 3.6ZM21.4261 4.92V16H18.6261V4.92H21.4261ZM23.4725 10.42C23.4725 9.3 23.6925 8.30667 24.1325 7.44C24.5858 6.57333 25.1992 5.90667 25.9725 5.44C26.7458 4.97333 27.6058 4.74 28.5525 4.74C29.2725 4.74 29.9592 4.9 30.6125 5.22C31.2658 5.52667 31.7858 5.94 32.1725 6.46V1.2H35.0125V16H32.1725V14.36C31.8258 14.9067 31.3392 15.3467 30.7125 15.68C30.0858 16.0133 29.3592 16.18 28.5325 16.18C27.5992 16.18 26.7458 15.94 25.9725 15.46C25.1992 14.98 24.5858 14.3067 24.1325 13.44C23.6925 12.56 23.4725 11.5533 23.4725 10.42ZM32.1925 10.46C32.1925 9.78 32.0592 9.2 31.7925 8.72C31.5258 8.22667 31.1658 7.85333 30.7125 7.6C30.2592 7.33333 29.7725 7.2 29.2525 7.2C28.7325 7.2 28.2525 7.32667 27.8125 7.58C27.3725 7.83333 27.0125 8.20667 26.7325 8.7C26.4658 9.18 26.3325 9.75333 26.3325 10.42C26.3325 11.0867 26.4658 11.6733 26.7325 12.18C27.0125 12.6733 27.3725 13.0533 27.8125 13.32C28.2658 13.5867 28.7458 13.72 29.2525 13.72C29.7725 13.72 30.2592 13.5933 30.7125 13.34C31.1658 13.0733 31.5258 12.7 31.7925 12.22C32.0592 11.7267 32.1925 11.14 32.1925 10.46ZM53.1072 4.92L49.8672 16H46.8472L44.8272 8.26L42.8072 16H39.7672L36.5072 4.92H39.3472L41.3072 13.36L43.4272 4.92H46.3872L48.4672 13.34L50.4272 4.92H53.1072ZM64.9222 10.22C64.9222 10.62 64.8955 10.98 64.8422 11.3H56.7422C56.8089 12.1 57.0889 12.7267 57.5822 13.18C58.0755 13.6333 58.6822 13.86 59.4022 13.86C60.4422 13.86 61.1822 13.4133 61.6222 12.52H64.6422C64.3222 13.5867 63.7089 14.4667 62.8022 15.16C61.8955 15.84 60.7822 16.18 59.4622 16.18C58.3955 16.18 57.4355 15.9467 56.5822 15.48C55.7422 15 55.0822 14.3267 54.6022 13.46C54.1355 12.5933 53.9022 11.5933 53.9022 10.46C53.9022 9.31333 54.1355 8.30667 54.6022 7.44C55.0689 6.57333 55.7222 5.90667 56.5622 5.44C57.4022 4.97333 58.3689 4.74 59.4622 4.74C60.5155 4.74 61.4555 4.96667 62.2822 5.42C63.1222 5.87333 63.7689 6.52 64.2222 7.36C64.6889 8.18667 64.9222 9.14 64.9222 10.22ZM62.0222 9.42C62.0089 8.7 61.7489 8.12667 61.2422 7.7C60.7355 7.26 60.1155 7.04 59.3822 7.04C58.6889 7.04 58.1022 7.25333 57.6222 7.68C57.1555 8.09333 56.8689 8.67333 56.7622 9.42H62.0222ZM71.2059 16.18C70.2993 16.18 69.4859 16.02 68.7659 15.7C68.0459 15.3667 67.4726 14.92 67.0459 14.36C66.6326 13.8 66.4059 13.18 66.3659 12.5H69.1859C69.2393 12.9267 69.4459 13.28 69.8059 13.56C70.1793 13.84 70.6393 13.98 71.1859 13.98C71.7193 13.98 72.1326 13.8733 72.4259 13.66C72.7326 13.4467 72.8859 13.1733 72.8859 12.84C72.8859 12.48 72.6993 12.2133 72.3259 12.04C71.9659 11.8533 71.3859 11.6533 70.5859 11.44C69.7593 11.24 69.0793 11.0333 68.5459 10.82C68.0259 10.6067 67.5726 10.28 67.1859 9.84C66.8126 9.4 66.6259 8.80667 66.6259 8.06C66.6259 7.44667 66.7993 6.88667 67.1459 6.38C67.5059 5.87333 68.0126 5.47333 68.6659 5.18C69.3326 4.88667 70.1126 4.74 71.0059 4.74C72.3259 4.74 73.3793 5.07333 74.1659 5.74C74.9526 6.39333 75.3859 7.28 75.4659 8.4H72.7859C72.7459 7.96 72.5593 7.61333 72.2259 7.36C71.9059 7.09333 71.4726 6.96 70.9259 6.96C70.4193 6.96 70.0259 7.05333 69.7459 7.24C69.4793 7.42667 69.3459 7.68667 69.3459 8.02C69.3459 8.39333 69.5326 8.68 69.9059 8.88C70.2793 9.06667 70.8593 9.26 71.6459 9.46C72.4459 9.66 73.1059 9.86667 73.6259 10.08C74.1459 10.2933 74.5926 10.6267 74.9659 11.08C75.3526 11.52 75.5526 12.1067 75.5659 12.84C75.5659 13.48 75.3859 14.0533 75.0259 14.56C74.6793 15.0667 74.1726 15.4667 73.5059 15.76C72.8526 16.04 72.0859 16.18 71.2059 16.18ZM81.1244 7.22V12.58C81.1244 12.9533 81.211 13.2267 81.3844 13.4C81.571 13.56 81.8777 13.64 82.3044 13.64H83.6044V16H81.8444C79.4844 16 78.3044 14.8533 78.3044 12.56V7.22H76.9844V4.92H78.3044V2.18H81.1244V4.92H83.6044V7.22H81.1244ZM100.564 6.36C100.564 7.10667 100.384 7.80667 100.024 8.46C99.6772 9.11333 99.1239 9.64 98.3639 10.04C97.6172 10.44 96.6706 10.64 95.5239 10.64H93.1839V16H90.3839V2.04H95.5239C96.6039 2.04 97.5239 2.22667 98.2839 2.6C99.0439 2.97333 99.6106 3.48667 99.9839 4.14C100.371 4.79333 100.564 5.53333 100.564 6.36ZM95.4039 8.38C96.1772 8.38 96.7506 8.20667 97.1239 7.86C97.4972 7.5 97.6839 7 97.6839 6.36C97.6839 5 96.9239 4.32 95.4039 4.32H93.1839V8.38H95.4039ZM106.792 16.18C105.885 16.18 105.072 16.02 104.352 15.7C103.632 15.3667 103.059 14.92 102.632 14.36C102.219 13.8 101.992 13.18 101.952 12.5H104.772C104.825 12.9267 105.032 13.28 105.392 13.56C105.765 13.84 106.225 13.98 106.772 13.98C107.305 13.98 107.719 13.8733 108.012 13.66C108.319 13.4467 108.472 13.1733 108.472 12.84C108.472 12.48 108.285 12.2133 107.912 12.04C107.552 11.8533 106.972 11.6533 106.172 11.44C105.345 11.24 104.665 11.0333 104.132 10.82C103.612 10.6067 103.159 10.28 102.772 9.84C102.399 9.4 102.212 8.80667 102.212 8.06C102.212 7.44667 102.385 6.88667 102.732 6.38C103.092 5.87333 103.599 5.47333 104.252 5.18C104.919 4.88667 105.699 4.74 106.592 4.74C107.912 4.74 108.965 5.07333 109.752 5.74C110.539 6.39333 110.972 7.28 111.052 8.4H108.372C108.332 7.96 108.145 7.61333 107.812 7.36C107.492 7.09333 107.059 6.96 106.512 6.96C106.005 6.96 105.612 7.05333 105.332 7.24C105.065 7.42667 104.932 7.68667 104.932 8.02C104.932 8.39333 105.119 8.68 105.492 8.88C105.865 9.06667 106.445 9.26 107.232 9.46C108.032 9.66 108.692 9.86667 109.212 10.08C109.732 10.2933 110.179 10.6267 110.552 11.08C110.939 11.52 111.139 12.1067 111.152 12.84C111.152 13.48 110.972 14.0533 110.612 14.56C110.265 15.0667 109.759 15.4667 109.092 15.76C108.439 16.04 107.672 16.18 106.792 16.18ZM124.05 4.92L117.19 21.24H114.21L116.61 15.72L112.17 4.92H115.31L118.17 12.66L121.07 4.92H124.05ZM124.84 10.46C124.84 9.31333 125.073 8.31333 125.54 7.46C126.006 6.59333 126.653 5.92667 127.48 5.46C128.306 4.98 129.253 4.74 130.32 4.74C131.693 4.74 132.826 5.08667 133.72 5.78C134.626 6.46 135.233 7.42 135.54 8.66H132.52C132.36 8.18 132.086 7.80667 131.7 7.54C131.326 7.26 130.86 7.12 130.3 7.12C129.5 7.12 128.866 7.41333 128.4 8C127.933 8.57333 127.7 9.39333 127.7 10.46C127.7 11.5133 127.933 12.3333 128.4 12.92C128.866 13.4933 129.5 13.78 130.3 13.78C131.433 13.78 132.173 13.2733 132.52 12.26H135.54C135.233 13.46 134.626 14.4133 133.72 15.12C132.813 15.8267 131.68 16.18 130.32 16.18C129.253 16.18 128.306 15.9467 127.48 15.48C126.653 15 126.006 14.3333 125.54 13.48C125.073 12.6133 124.84 11.6067 124.84 10.46ZM143.831 4.76C144.671 4.76 145.418 4.94667 146.071 5.32C146.724 5.68 147.231 6.22 147.591 6.94C147.964 7.64667 148.151 8.5 148.151 9.5V16H145.351V9.88C145.351 9 145.131 8.32667 144.691 7.86C144.251 7.38 143.651 7.14 142.891 7.14C142.118 7.14 141.504 7.38 141.051 7.86C140.611 8.32667 140.391 9 140.391 9.88V16H137.591V1.2H140.391V6.3C140.751 5.82 141.231 5.44667 141.831 5.18C142.431 4.9 143.098 4.76 143.831 4.76ZM155.734 16.18C154.667 16.18 153.707 15.9467 152.854 15.48C152 15 151.327 14.3267 150.834 13.46C150.354 12.5933 150.114 11.5933 150.114 10.46C150.114 9.32667 150.36 8.32667 150.854 7.46C151.36 6.59333 152.047 5.92667 152.914 5.46C153.78 4.98 154.747 4.74 155.814 4.74C156.88 4.74 157.847 4.98 158.714 5.46C159.58 5.92667 160.26 6.59333 160.754 7.46C161.26 8.32667 161.514 9.32667 161.514 10.46C161.514 11.5933 161.254 12.5933 160.734 13.46C160.227 14.3267 159.534 15 158.654 15.48C157.787 15.9467 156.814 16.18 155.734 16.18ZM155.734 13.74C156.24 13.74 156.714 13.62 157.154 13.38C157.607 13.1267 157.967 12.7533 158.234 12.26C158.5 11.7667 158.634 11.1667 158.634 10.46C158.634 9.40667 158.354 8.6 157.794 8.04C157.247 7.46667 156.574 7.18 155.774 7.18C154.974 7.18 154.3 7.46667 153.754 8.04C153.22 8.6 152.954 9.40667 152.954 10.46C152.954 11.5133 153.214 12.3267 153.734 12.9C154.267 13.46 154.934 13.74 155.734 13.74ZM166.368 1.2V16H163.568V1.2H166.368ZM174.054 16.18C172.987 16.18 172.027 15.9467 171.174 15.48C170.321 15 169.647 14.3267 169.154 13.46C168.674 12.5933 168.434 11.5933 168.434 10.46C168.434 9.32667 168.681 8.32667 169.174 7.46C169.681 6.59333 170.367 5.92667 171.234 5.46C172.101 4.98 173.067 4.74 174.134 4.74C175.201 4.74 176.167 4.98 177.034 5.46C177.901 5.92667 178.581 6.59333 179.074 7.46C179.581 8.32667 179.834 9.32667 179.834 10.46C179.834 11.5933 179.574 12.5933 179.054 13.46C178.547 14.3267 177.854 15 176.974 15.48C176.107 15.9467 175.134 16.18 174.054 16.18ZM174.054 13.74C174.561 13.74 175.034 13.62 175.474 13.38C175.927 13.1267 176.287 12.7533 176.554 12.26C176.821 11.7667 176.954 11.1667 176.954 10.46C176.954 9.40667 176.674 8.6 176.114 8.04C175.567 7.46667 174.894 7.18 174.094 7.18C173.294 7.18 172.621 7.46667 172.074 8.04C171.541 8.6 171.274 9.40667 171.274 10.46C171.274 11.5133 171.534 12.3267 172.054 12.9C172.587 13.46 173.254 13.74 174.054 13.74ZM186.228 4.74C187.054 4.74 187.781 4.90667 188.408 5.24C189.034 5.56 189.528 5.98 189.888 6.5V4.92H192.708V16.08C192.708 17.1067 192.501 18.02 192.088 18.82C191.674 19.6333 191.054 20.2733 190.228 20.74C189.401 21.22 188.401 21.46 187.228 21.46C185.654 21.46 184.361 21.0933 183.348 20.36C182.348 19.6267 181.781 18.6267 181.648 17.36H184.428C184.574 17.8667 184.888 18.2667 185.368 18.56C185.861 18.8667 186.454 19.02 187.148 19.02C187.961 19.02 188.621 18.7733 189.128 18.28C189.634 17.8 189.888 17.0667 189.888 16.08V14.36C189.528 14.88 189.028 15.3133 188.388 15.66C187.761 16.0067 187.041 16.18 186.228 16.18C185.294 16.18 184.441 15.94 183.668 15.46C182.894 14.98 182.281 14.3067 181.828 13.44C181.388 12.56 181.168 11.5533 181.168 10.42C181.168 9.3 181.388 8.30667 181.828 7.44C182.281 6.57333 182.888 5.90667 183.648 5.44C184.421 4.97333 185.281 4.74 186.228 4.74ZM189.888 10.46C189.888 9.78 189.754 9.2 189.488 8.72C189.221 8.22667 188.861 7.85333 188.408 7.6C187.954 7.33333 187.468 7.2 186.948 7.2C186.428 7.2 185.948 7.32667 185.508 7.58C185.068 7.83333 184.708 8.20667 184.428 8.7C184.161 9.18 184.028 9.75333 184.028 10.42C184.028 11.0867 184.161 11.6733 184.428 12.18C184.708 12.6733 185.068 13.0533 185.508 13.32C185.961 13.5867 186.441 13.72 186.948 13.72C187.468 13.72 187.954 13.5933 188.408 13.34C188.861 13.0733 189.221 12.7 189.488 12.22C189.754 11.7267 189.888 11.14 189.888 10.46ZM196.863 3.6C196.369 3.6 195.956 3.44667 195.623 3.14C195.303 2.82 195.143 2.42667 195.143 1.96C195.143 1.49333 195.303 1.10667 195.623 0.799999C195.956 0.479999 196.369 0.319999 196.863 0.319999C197.356 0.319999 197.763 0.479999 198.083 0.799999C198.416 1.10667 198.583 1.49333 198.583 1.96C198.583 2.42667 198.416 2.82 198.083 3.14C197.763 3.44667 197.356 3.6 196.863 3.6ZM198.243 4.92V16H195.443V4.92H198.243ZM200.289 10.46C200.289 9.31333 200.522 8.31333 200.989 7.46C201.456 6.59333 202.102 5.92667 202.929 5.46C203.756 4.98 204.702 4.74 205.769 4.74C207.142 4.74 208.276 5.08667 209.169 5.78C210.076 6.46 210.682 7.42 210.989 8.66H207.969C207.809 8.18 207.536 7.80667 207.149 7.54C206.776 7.26 206.309 7.12 205.749 7.12C204.949 7.12 204.316 7.41333 203.849 8C203.382 8.57333 203.149 9.39333 203.149 10.46C203.149 11.5133 203.382 12.3333 203.849 12.92C204.316 13.4933 204.949 13.78 205.749 13.78C206.882 13.78 207.622 13.2733 207.969 12.26H210.989C210.682 13.46 210.076 14.4133 209.169 15.12C208.262 15.8267 207.129 16.18 205.769 16.18C204.702 16.18 203.756 15.9467 202.929 15.48C202.102 15 201.456 14.3333 200.989 13.48C200.522 12.6133 200.289 11.6067 200.289 10.46ZM212.32 10.42C212.32 9.3 212.54 8.30667 212.98 7.44C213.433 6.57333 214.04 5.90667 214.8 5.44C215.573 4.97333 216.433 4.74 217.38 4.74C218.207 4.74 218.927 4.90667 219.54 5.24C220.167 5.57333 220.667 5.99333 221.04 6.5V4.92H223.86V16H221.04V14.38C220.68 14.9 220.18 15.3333 219.54 15.68C218.913 16.0133 218.187 16.18 217.36 16.18C216.427 16.18 215.573 15.94 214.8 15.46C214.04 14.98 213.433 14.3067 212.98 13.44C212.54 12.56 212.32 11.5533 212.32 10.42ZM221.04 10.46C221.04 9.78 220.907 9.2 220.64 8.72C220.373 8.22667 220.013 7.85333 219.56 7.6C219.107 7.33333 218.62 7.2 218.1 7.2C217.58 7.2 217.1 7.32667 216.66 7.58C216.22 7.83333 215.86 8.20667 215.58 8.7C215.313 9.18 215.18 9.75333 215.18 10.42C215.18 11.0867 215.313 11.6733 215.58 12.18C215.86 12.6733 216.22 13.0533 216.66 13.32C217.113 13.5867 217.593 13.72 218.1 13.72C218.62 13.72 219.107 13.5933 219.56 13.34C220.013 13.0733 220.373 12.7 220.64 12.22C220.907 11.7267 221.04 11.14 221.04 10.46ZM229.395 1.2V16H226.595V1.2H229.395ZM245.487 13.34H239.927L239.007 16H236.067L241.087 2.02H244.347L249.367 16H246.407L245.487 13.34ZM244.727 11.1L242.707 5.26L240.687 11.1H244.727ZM255.483 16.18C254.577 16.18 253.763 16.02 253.043 15.7C252.323 15.3667 251.75 14.92 251.323 14.36C250.91 13.8 250.683 13.18 250.643 12.5H253.463C253.517 12.9267 253.723 13.28 254.083 13.56C254.457 13.84 254.917 13.98 255.463 13.98C255.997 13.98 256.41 13.8733 256.703 13.66C257.01 13.4467 257.163 13.1733 257.163 12.84C257.163 12.48 256.977 12.2133 256.603 12.04C256.243 11.8533 255.663 11.6533 254.863 11.44C254.037 11.24 253.357 11.0333 252.823 10.82C252.303 10.6067 251.85 10.28 251.463 9.84C251.09 9.4 250.903 8.80667 250.903 8.06C250.903 7.44667 251.077 6.88667 251.423 6.38C251.783 5.87333 252.29 5.47333 252.943 5.18C253.61 4.88667 254.39 4.74 255.283 4.74C256.603 4.74 257.657 5.07333 258.443 5.74C259.23 6.39333 259.663 7.28 259.743 8.4H257.063C257.023 7.96 256.837 7.61333 256.503 7.36C256.183 7.09333 255.75 6.96 255.203 6.96C254.697 6.96 254.303 7.05333 254.023 7.24C253.757 7.42667 253.623 7.68667 253.623 8.02C253.623 8.39333 253.81 8.68 254.183 8.88C254.557 9.06667 255.137 9.26 255.923 9.46C256.723 9.66 257.383 9.86667 257.903 10.08C258.423 10.2933 258.87 10.6267 259.243 11.08C259.63 11.52 259.83 12.1067 259.843 12.84C259.843 13.48 259.663 14.0533 259.303 14.56C258.957 15.0667 258.45 15.4667 257.783 15.76C257.13 16.04 256.363 16.18 255.483 16.18ZM266.382 16.18C265.475 16.18 264.662 16.02 263.942 15.7C263.222 15.3667 262.648 14.92 262.222 14.36C261.808 13.8 261.582 13.18 261.542 12.5H264.362C264.415 12.9267 264.622 13.28 264.982 13.56C265.355 13.84 265.815 13.98 266.362 13.98C266.895 13.98 267.308 13.8733 267.602 13.66C267.908 13.4467 268.062 13.1733 268.062 12.84C268.062 12.48 267.875 12.2133 267.502 12.04C267.142 11.8533 266.562 11.6533 265.762 11.44C264.935 11.24 264.255 11.0333 263.722 10.82C263.202 10.6067 262.748 10.28 262.362 9.84C261.988 9.4 261.802 8.80667 261.802 8.06C261.802 7.44667 261.975 6.88667 262.322 6.38C262.682 5.87333 263.188 5.47333 263.842 5.18C264.508 4.88667 265.288 4.74 266.182 4.74C267.502 4.74 268.555 5.07333 269.342 5.74C270.128 6.39333 270.562 7.28 270.642 8.4H267.962C267.922 7.96 267.735 7.61333 267.402 7.36C267.082 7.09333 266.648 6.96 266.102 6.96C265.595 6.96 265.202 7.05333 264.922 7.24C264.655 7.42667 264.522 7.68667 264.522 8.02C264.522 8.39333 264.708 8.68 265.082 8.88C265.455 9.06667 266.035 9.26 266.822 9.46C267.622 9.66 268.282 9.86667 268.802 10.08C269.322 10.2933 269.768 10.6267 270.142 11.08C270.528 11.52 270.728 12.1067 270.742 12.84C270.742 13.48 270.562 14.0533 270.202 14.56C269.855 15.0667 269.348 15.4667 268.682 15.76C268.028 16.04 267.262 16.18 266.382 16.18ZM283.34 10.22C283.34 10.62 283.313 10.98 283.26 11.3H275.16C275.227 12.1 275.507 12.7267 276 13.18C276.493 13.6333 277.1 13.86 277.82 13.86C278.86 13.86 279.6 13.4133 280.04 12.52H283.06C282.74 13.5867 282.127 14.4667 281.22 15.16C280.313 15.84 279.2 16.18 277.88 16.18C276.813 16.18 275.853 15.9467 275 15.48C274.16 15 273.5 14.3267 273.02 13.46C272.553 12.5933 272.32 11.5933 272.32 10.46C272.32 9.31333 272.553 8.30667 273.02 7.44C273.487 6.57333 274.14 5.90667 274.98 5.44C275.82 4.97333 276.787 4.74 277.88 4.74C278.933 4.74 279.873 4.96667 280.7 5.42C281.54 5.87333 282.187 6.52 282.64 7.36C283.107 8.18667 283.34 9.14 283.34 10.22ZM280.44 9.42C280.427 8.7 280.167 8.12667 279.66 7.7C279.153 7.26 278.533 7.04 277.8 7.04C277.107 7.04 276.52 7.25333 276.04 7.68C275.573 8.09333 275.287 8.67333 275.18 9.42H280.44ZM289.624 16.18C288.717 16.18 287.904 16.02 287.184 15.7C286.464 15.3667 285.891 14.92 285.464 14.36C285.051 13.8 284.824 13.18 284.784 12.5H287.604C287.657 12.9267 287.864 13.28 288.224 13.56C288.597 13.84 289.057 13.98 289.604 13.98C290.137 13.98 290.551 13.8733 290.844 13.66C291.151 13.4467 291.304 13.1733 291.304 12.84C291.304 12.48 291.117 12.2133 290.744 12.04C290.384 11.8533 289.804 11.6533 289.004 11.44C288.177 11.24 287.497 11.0333 286.964 10.82C286.444 10.6067 285.991 10.28 285.604 9.84C285.231 9.4 285.044 8.80667 285.044 8.06C285.044 7.44667 285.217 6.88667 285.564 6.38C285.924 5.87333 286.431 5.47333 287.084 5.18C287.751 4.88667 288.531 4.74 289.424 4.74C290.744 4.74 291.797 5.07333 292.584 5.74C293.371 6.39333 293.804 7.28 293.884 8.4H291.204C291.164 7.96 290.977 7.61333 290.644 7.36C290.324 7.09333 289.891 6.96 289.344 6.96C288.837 6.96 288.444 7.05333 288.164 7.24C287.897 7.42667 287.764 7.68667 287.764 8.02C287.764 8.39333 287.951 8.68 288.324 8.88C288.697 9.06667 289.277 9.26 290.064 9.46C290.864 9.66 291.524 9.86667 292.044 10.08C292.564 10.2933 293.011 10.6267 293.384 11.08C293.771 11.52 293.971 12.1067 293.984 12.84C293.984 13.48 293.804 14.0533 293.444 14.56C293.097 15.0667 292.591 15.4667 291.924 15.76C291.271 16.04 290.504 16.18 289.624 16.18ZM300.522 16.18C299.616 16.18 298.802 16.02 298.082 15.7C297.362 15.3667 296.789 14.92 296.362 14.36C295.949 13.8 295.722 13.18 295.682 12.5H298.502C298.556 12.9267 298.762 13.28 299.122 13.56C299.496 13.84 299.956 13.98 300.502 13.98C301.036 13.98 301.449 13.8733 301.742 13.66C302.049 13.4467 302.202 13.1733 302.202 12.84C302.202 12.48 302.016 12.2133 301.642 12.04C301.282 11.8533 300.702 11.6533 299.902 11.44C299.076 11.24 298.396 11.0333 297.862 10.82C297.342 10.6067 296.889 10.28 296.502 9.84C296.129 9.4 295.942 8.80667 295.942 8.06C295.942 7.44667 296.116 6.88667 296.462 6.38C296.822 5.87333 297.329 5.47333 297.982 5.18C298.649 4.88667 299.429 4.74 300.322 4.74C301.642 4.74 302.696 5.07333 303.482 5.74C304.269 6.39333 304.702 7.28 304.782 8.4H302.102C302.062 7.96 301.876 7.61333 301.542 7.36C301.222 7.09333 300.789 6.96 300.242 6.96C299.736 6.96 299.342 7.05333 299.062 7.24C298.796 7.42667 298.662 7.68667 298.662 8.02C298.662 8.39333 298.849 8.68 299.222 8.88C299.596 9.06667 300.176 9.26 300.962 9.46C301.762 9.66 302.422 9.86667 302.942 10.08C303.462 10.2933 303.909 10.6267 304.282 11.08C304.669 11.52 304.869 12.1067 304.882 12.84C304.882 13.48 304.702 14.0533 304.342 14.56C303.996 15.0667 303.489 15.4667 302.822 15.76C302.169 16.04 301.402 16.18 300.522 16.18ZM320.941 4.76C322.301 4.76 323.394 5.18 324.221 6.02C325.061 6.84667 325.481 8.00667 325.481 9.5V16H322.681V9.88C322.681 9.01333 322.461 8.35333 322.021 7.9C321.581 7.43333 320.981 7.2 320.221 7.2C319.461 7.2 318.854 7.43333 318.401 7.9C317.961 8.35333 317.741 9.01333 317.741 9.88V16H314.941V9.88C314.941 9.01333 314.721 8.35333 314.281 7.9C313.841 7.43333 313.241 7.2 312.481 7.2C311.707 7.2 311.094 7.43333 310.641 7.9C310.201 8.35333 309.981 9.01333 309.981 9.88V16H307.181V4.92H309.981V6.26C310.341 5.79333 310.801 5.42667 311.361 5.16C311.934 4.89333 312.561 4.76 313.241 4.76C314.107 4.76 314.881 4.94667 315.561 5.32C316.241 5.68 316.767 6.2 317.141 6.88C317.501 6.24 318.021 5.72667 318.701 5.34C319.394 4.95333 320.141 4.76 320.941 4.76ZM338.438 10.22C338.438 10.62 338.411 10.98 338.358 11.3H330.258C330.324 12.1 330.604 12.7267 331.098 13.18C331.591 13.6333 332.198 13.86 332.918 13.86C333.958 13.86 334.698 13.4133 335.138 12.52H338.158C337.838 13.5867 337.224 14.4667 336.318 15.16C335.411 15.84 334.298 16.18 332.978 16.18C331.911 16.18 330.951 15.9467 330.098 15.48C329.258 15 328.598 14.3267 328.118 13.46C327.651 12.5933 327.418 11.5933 327.418 10.46C327.418 9.31333 327.651 8.30667 328.118 7.44C328.584 6.57333 329.238 5.90667 330.078 5.44C330.918 4.97333 331.884 4.74 332.978 4.74C334.031 4.74 334.971 4.96667 335.798 5.42C336.638 5.87333 337.284 6.52 337.738 7.36C338.204 8.18667 338.438 9.14 338.438 10.22ZM335.538 9.42C335.524 8.7 335.264 8.12667 334.758 7.7C334.251 7.26 333.631 7.04 332.898 7.04C332.204 7.04 331.618 7.25333 331.138 7.68C330.671 8.09333 330.384 8.67333 330.278 9.42H335.538ZM346.622 4.76C347.942 4.76 349.008 5.18 349.822 6.02C350.635 6.84667 351.042 8.00667 351.042 9.5V16H348.242V9.88C348.242 9 348.022 8.32667 347.582 7.86C347.142 7.38 346.542 7.14 345.782 7.14C345.008 7.14 344.395 7.38 343.942 7.86C343.502 8.32667 343.282 9 343.282 9.88V16H340.482V4.92H343.282V6.3C343.655 5.82 344.128 5.44667 344.702 5.18C345.288 4.9 345.928 4.76 346.622 4.76ZM356.964 7.22V12.58C356.964 12.9533 357.051 13.2267 357.224 13.4C357.411 13.56 357.718 13.64 358.144 13.64H359.444V16H357.684C355.324 16 354.144 14.8533 354.144 12.56V7.22H352.824V4.92H354.144V2.18H356.964V4.92H359.444V7.22H356.964ZM365.698 16.18C364.791 16.18 363.978 16.02 363.258 15.7C362.538 15.3667 361.965 14.92 361.538 14.36C361.125 13.8 360.898 13.18 360.858 12.5H363.678C363.731 12.9267 363.938 13.28 364.298 13.56C364.671 13.84 365.131 13.98 365.678 13.98C366.211 13.98 366.625 13.8733 366.918 13.66C367.225 13.4467 367.378 13.1733 367.378 12.84C367.378 12.48 367.191 12.2133 366.818 12.04C366.458 11.8533 365.878 11.6533 365.078 11.44C364.251 11.24 363.571 11.0333 363.038 10.82C362.518 10.6067 362.065 10.28 361.678 9.84C361.305 9.4 361.118 8.80667 361.118 8.06C361.118 7.44667 361.291 6.88667 361.638 6.38C361.998 5.87333 362.505 5.47333 363.158 5.18C363.825 4.88667 364.605 4.74 365.498 4.74C366.818 4.74 367.871 5.07333 368.658 5.74C369.445 6.39333 369.878 7.28 369.958 8.4H367.278C367.238 7.96 367.051 7.61333 366.718 7.36C366.398 7.09333 365.965 6.96 365.418 6.96C364.911 6.96 364.518 7.05333 364.238 7.24C363.971 7.42667 363.838 7.68667 363.838 8.02C363.838 8.39333 364.025 8.68 364.398 8.88C364.771 9.06667 365.351 9.26 366.138 9.46C366.938 9.66 367.598 9.86667 368.118 10.08C368.638 10.2933 369.085 10.6267 369.458 11.08C369.845 11.52 370.045 12.1067 370.058 12.84C370.058 13.48 369.878 14.0533 369.518 14.56C369.171 15.0667 368.665 15.4667 367.998 15.76C367.345 16.04 366.578 16.18 365.698 16.18Z" fill="white"/>
</svg>
