<svg width="229" height="47" viewBox="0 0 229 47" fill="none" xmlns="http://www.w3.org/2000/svg">
<path d="M15.3383 2.04V16H12.5383V6.92L8.79828 16H6.67828L2.91828 6.92V16H0.118281V2.04H3.29828L7.73828 12.42L12.1783 2.04H15.3383ZM19.5266 3.6C19.0332 3.6 18.6199 3.44667 18.2866 3.14C17.9666 2.82 17.8066 2.42667 17.8066 1.96C17.8066 1.49333 17.9666 1.10667 18.2866 0.799999C18.6199 0.479999 19.0332 0.319999 19.5266 0.319999C20.0199 0.319999 20.4266 0.479999 20.7466 0.799999C21.0799 1.10667 21.2466 1.49333 21.2466 1.96C21.2466 2.42667 21.0799 2.82 20.7466 3.14C20.4266 3.44667 20.0199 3.6 19.5266 3.6ZM20.9066 4.92V16H18.1066V4.92H20.9066ZM22.953 10.42C22.953 9.3 23.173 8.30667 23.613 7.44C24.0663 6.57333 24.6796 5.90667 25.453 5.44C26.2263 4.97333 27.0863 4.74 28.033 4.74C28.753 4.74 29.4396 4.9 30.093 5.22C30.7463 5.52667 31.2663 5.94 31.653 6.46V1.2H34.493V16H31.653V14.36C31.3063 14.9067 30.8196 15.3467 30.193 15.68C29.5663 16.0133 28.8396 16.18 28.013 16.18C27.0796 16.18 26.2263 15.94 25.453 15.46C24.6796 14.98 24.0663 14.3067 23.613 13.44C23.173 12.56 22.953 11.5533 22.953 10.42ZM31.673 10.46C31.673 9.78 31.5396 9.2 31.273 8.72C31.0063 8.22667 30.6463 7.85333 30.193 7.6C29.7396 7.33333 29.253 7.2 28.733 7.2C28.213 7.2 27.733 7.32667 27.293 7.58C26.853 7.83333 26.493 8.20667 26.213 8.7C25.9463 9.18 25.813 9.75333 25.813 10.42C25.813 11.0867 25.9463 11.6733 26.213 12.18C26.493 12.6733 26.853 13.0533 27.293 13.32C27.7463 13.5867 28.2263 13.72 28.733 13.72C29.253 13.72 29.7396 13.5933 30.193 13.34C30.6463 13.0733 31.0063 12.7 31.273 12.22C31.5396 11.7267 31.673 11.14 31.673 10.46ZM52.5877 4.92L49.3477 16H46.3277L44.3077 8.26L42.2877 16H39.2477L35.9877 4.92H38.8277L40.7877 13.36L42.9077 4.92H45.8677L47.9477 13.34L49.9077 4.92H52.5877ZM64.4027 10.22C64.4027 10.62 64.376 10.98 64.3227 11.3H56.2227C56.2893 12.1 56.5693 12.7267 57.0627 13.18C57.556 13.6333 58.1627 13.86 58.8827 13.86C59.9227 13.86 60.6627 13.4133 61.1027 12.52H64.1227C63.8027 13.5867 63.1893 14.4667 62.2827 15.16C61.376 15.84 60.2627 16.18 58.9427 16.18C57.876 16.18 56.916 15.9467 56.0627 15.48C55.2227 15 54.5627 14.3267 54.0827 13.46C53.616 12.5933 53.3827 11.5933 53.3827 10.46C53.3827 9.31333 53.616 8.30667 54.0827 7.44C54.5493 6.57333 55.2027 5.90667 56.0427 5.44C56.8827 4.97333 57.8493 4.74 58.9427 4.74C59.996 4.74 60.936 4.96667 61.7627 5.42C62.6027 5.87333 63.2493 6.52 63.7027 7.36C64.1693 8.18667 64.4027 9.14 64.4027 10.22ZM61.5027 9.42C61.4893 8.7 61.2293 8.12667 60.7227 7.7C60.216 7.26 59.596 7.04 58.8627 7.04C58.1693 7.04 57.5827 7.25333 57.1027 7.68C56.636 8.09333 56.3493 8.67333 56.2427 9.42H61.5027ZM70.6864 16.18C69.7797 16.18 68.9664 16.02 68.2464 15.7C67.5264 15.3667 66.9531 14.92 66.5264 14.36C66.1131 13.8 65.8864 13.18 65.8464 12.5H68.6664C68.7197 12.9267 68.9264 13.28 69.2864 13.56C69.6597 13.84 70.1197 13.98 70.6664 13.98C71.1997 13.98 71.6131 13.8733 71.9064 13.66C72.2131 13.4467 72.3664 13.1733 72.3664 12.84C72.3664 12.48 72.1797 12.2133 71.8064 12.04C71.4464 11.8533 70.8664 11.6533 70.0664 11.44C69.2397 11.24 68.5597 11.0333 68.0264 10.82C67.5064 10.6067 67.0531 10.28 66.6664 9.84C66.2931 9.4 66.1064 8.80667 66.1064 8.06C66.1064 7.44667 66.2797 6.88667 66.6264 6.38C66.9864 5.87333 67.4931 5.47333 68.1464 5.18C68.8131 4.88667 69.5931 4.74 70.4864 4.74C71.8064 4.74 72.8597 5.07333 73.6464 5.74C74.4331 6.39333 74.8664 7.28 74.9464 8.4H72.2664C72.2264 7.96 72.0397 7.61333 71.7064 7.36C71.3864 7.09333 70.9531 6.96 70.4064 6.96C69.8997 6.96 69.5064 7.05333 69.2264 7.24C68.9597 7.42667 68.8264 7.68667 68.8264 8.02C68.8264 8.39333 69.0131 8.68 69.3864 8.88C69.7597 9.06667 70.3397 9.26 71.1264 9.46C71.9264 9.66 72.5864 9.86667 73.1064 10.08C73.6264 10.2933 74.0731 10.6267 74.4464 11.08C74.8331 11.52 75.0331 12.1067 75.0464 12.84C75.0464 13.48 74.8664 14.0533 74.5064 14.56C74.1597 15.0667 73.6531 15.4667 72.9864 15.76C72.3331 16.04 71.5664 16.18 70.6864 16.18ZM80.6048 7.22V12.58C80.6048 12.9533 80.6915 13.2267 80.8648 13.4C81.0515 13.56 81.3582 13.64 81.7848 13.64H83.0848V16H81.3248C78.9648 16 77.7848 14.8533 77.7848 12.56V7.22H76.4648V4.92H77.7848V2.18H80.6048V4.92H83.0848V7.22H80.6048ZM100.044 6.36C100.044 7.10667 99.8644 7.80667 99.5044 8.46C99.1577 9.11333 98.6044 9.64 97.8444 10.04C97.0977 10.44 96.151 10.64 95.0044 10.64H92.6644V16H89.8644V2.04H95.0044C96.0844 2.04 97.0044 2.22667 97.7644 2.6C98.5244 2.97333 99.091 3.48667 99.4644 4.14C99.851 4.79333 100.044 5.53333 100.044 6.36ZM94.8844 8.38C95.6577 8.38 96.231 8.20667 96.6044 7.86C96.9777 7.5 97.1644 7 97.1644 6.36C97.1644 5 96.4044 4.32 94.8844 4.32H92.6644V8.38H94.8844ZM106.272 16.18C105.366 16.18 104.552 16.02 103.832 15.7C103.112 15.3667 102.539 14.92 102.112 14.36C101.699 13.8 101.472 13.18 101.432 12.5H104.252C104.306 12.9267 104.512 13.28 104.872 13.56C105.246 13.84 105.706 13.98 106.252 13.98C106.786 13.98 107.199 13.8733 107.492 13.66C107.799 13.4467 107.952 13.1733 107.952 12.84C107.952 12.48 107.766 12.2133 107.392 12.04C107.032 11.8533 106.452 11.6533 105.652 11.44C104.826 11.24 104.146 11.0333 103.612 10.82C103.092 10.6067 102.639 10.28 102.252 9.84C101.879 9.4 101.692 8.80667 101.692 8.06C101.692 7.44667 101.866 6.88667 102.212 6.38C102.572 5.87333 103.079 5.47333 103.732 5.18C104.399 4.88667 105.179 4.74 106.072 4.74C107.392 4.74 108.446 5.07333 109.232 5.74C110.019 6.39333 110.452 7.28 110.532 8.4H107.852C107.812 7.96 107.626 7.61333 107.292 7.36C106.972 7.09333 106.539 6.96 105.992 6.96C105.486 6.96 105.092 7.05333 104.812 7.24C104.546 7.42667 104.412 7.68667 104.412 8.02C104.412 8.39333 104.599 8.68 104.972 8.88C105.346 9.06667 105.926 9.26 106.712 9.46C107.512 9.66 108.172 9.86667 108.692 10.08C109.212 10.2933 109.659 10.6267 110.032 11.08C110.419 11.52 110.619 12.1067 110.632 12.84C110.632 13.48 110.452 14.0533 110.092 14.56C109.746 15.0667 109.239 15.4667 108.572 15.76C107.919 16.04 107.152 16.18 106.272 16.18ZM123.531 4.92L116.671 21.24H113.691L116.091 15.72L111.651 4.92H114.791L117.651 12.66L120.551 4.92H123.531ZM124.32 10.46C124.32 9.31333 124.553 8.31333 125.02 7.46C125.487 6.59333 126.133 5.92667 126.96 5.46C127.787 4.98 128.733 4.74 129.8 4.74C131.173 4.74 132.307 5.08667 133.2 5.78C134.107 6.46 134.713 7.42 135.02 8.66H132C131.84 8.18 131.567 7.80667 131.18 7.54C130.807 7.26 130.34 7.12 129.78 7.12C128.98 7.12 128.347 7.41333 127.88 8C127.413 8.57333 127.18 9.39333 127.18 10.46C127.18 11.5133 127.413 12.3333 127.88 12.92C128.347 13.4933 128.98 13.78 129.78 13.78C130.913 13.78 131.653 13.2733 132 12.26H135.02C134.713 13.46 134.107 14.4133 133.2 15.12C132.293 15.8267 131.16 16.18 129.8 16.18C128.733 16.18 127.787 15.9467 126.96 15.48C126.133 15 125.487 14.3333 125.02 13.48C124.553 12.6133 124.32 11.6067 124.32 10.46ZM143.311 4.76C144.151 4.76 144.898 4.94667 145.551 5.32C146.205 5.68 146.711 6.22 147.071 6.94C147.445 7.64667 147.631 8.5 147.631 9.5V16H144.831V9.88C144.831 9 144.611 8.32667 144.171 7.86C143.731 7.38 143.131 7.14 142.371 7.14C141.598 7.14 140.985 7.38 140.531 7.86C140.091 8.32667 139.871 9 139.871 9.88V16H137.071V1.2H139.871V6.3C140.231 5.82 140.711 5.44667 141.311 5.18C141.911 4.9 142.578 4.76 143.311 4.76ZM155.214 16.18C154.147 16.18 153.187 15.9467 152.334 15.48C151.481 15 150.807 14.3267 150.314 13.46C149.834 12.5933 149.594 11.5933 149.594 10.46C149.594 9.32667 149.841 8.32667 150.334 7.46C150.841 6.59333 151.527 5.92667 152.394 5.46C153.261 4.98 154.227 4.74 155.294 4.74C156.361 4.74 157.327 4.98 158.194 5.46C159.061 5.92667 159.741 6.59333 160.234 7.46C160.741 8.32667 160.994 9.32667 160.994 10.46C160.994 11.5933 160.734 12.5933 160.214 13.46C159.707 14.3267 159.014 15 158.134 15.48C157.267 15.9467 156.294 16.18 155.214 16.18ZM155.214 13.74C155.721 13.74 156.194 13.62 156.634 13.38C157.087 13.1267 157.447 12.7533 157.714 12.26C157.981 11.7667 158.114 11.1667 158.114 10.46C158.114 9.40667 157.834 8.6 157.274 8.04C156.727 7.46667 156.054 7.18 155.254 7.18C154.454 7.18 153.781 7.46667 153.234 8.04C152.701 8.6 152.434 9.40667 152.434 10.46C152.434 11.5133 152.694 12.3267 153.214 12.9C153.747 13.46 154.414 13.74 155.214 13.74ZM165.848 1.2V16H163.048V1.2H165.848ZM173.534 16.18C172.468 16.18 171.508 15.9467 170.654 15.48C169.801 15 169.128 14.3267 168.634 13.46C168.154 12.5933 167.914 11.5933 167.914 10.46C167.914 9.32667 168.161 8.32667 168.654 7.46C169.161 6.59333 169.848 5.92667 170.714 5.46C171.581 4.98 172.548 4.74 173.614 4.74C174.681 4.74 175.648 4.98 176.514 5.46C177.381 5.92667 178.061 6.59333 178.554 7.46C179.061 8.32667 179.314 9.32667 179.314 10.46C179.314 11.5933 179.054 12.5933 178.534 13.46C178.028 14.3267 177.334 15 176.454 15.48C175.588 15.9467 174.614 16.18 173.534 16.18ZM173.534 13.74C174.041 13.74 174.514 13.62 174.954 13.38C175.408 13.1267 175.768 12.7533 176.034 12.26C176.301 11.7667 176.434 11.1667 176.434 10.46C176.434 9.40667 176.154 8.6 175.594 8.04C175.048 7.46667 174.374 7.18 173.574 7.18C172.774 7.18 172.101 7.46667 171.554 8.04C171.021 8.6 170.754 9.40667 170.754 10.46C170.754 11.5133 171.014 12.3267 171.534 12.9C172.068 13.46 172.734 13.74 173.534 13.74ZM185.708 4.74C186.535 4.74 187.262 4.90667 187.888 5.24C188.515 5.56 189.008 5.98 189.368 6.5V4.92H192.188V16.08C192.188 17.1067 191.982 18.02 191.568 18.82C191.155 19.6333 190.535 20.2733 189.708 20.74C188.882 21.22 187.882 21.46 186.708 21.46C185.135 21.46 183.842 21.0933 182.828 20.36C181.828 19.6267 181.262 18.6267 181.128 17.36H183.908C184.055 17.8667 184.368 18.2667 184.848 18.56C185.342 18.8667 185.935 19.02 186.628 19.02C187.442 19.02 188.102 18.7733 188.608 18.28C189.115 17.8 189.368 17.0667 189.368 16.08V14.36C189.008 14.88 188.508 15.3133 187.868 15.66C187.242 16.0067 186.522 16.18 185.708 16.18C184.775 16.18 183.922 15.94 183.148 15.46C182.375 14.98 181.762 14.3067 181.308 13.44C180.868 12.56 180.648 11.5533 180.648 10.42C180.648 9.3 180.868 8.30667 181.308 7.44C181.762 6.57333 182.368 5.90667 183.128 5.44C183.902 4.97333 184.762 4.74 185.708 4.74ZM189.368 10.46C189.368 9.78 189.235 9.2 188.968 8.72C188.702 8.22667 188.342 7.85333 187.888 7.6C187.435 7.33333 186.948 7.2 186.428 7.2C185.908 7.2 185.428 7.32667 184.988 7.58C184.548 7.83333 184.188 8.20667 183.908 8.7C183.642 9.18 183.508 9.75333 183.508 10.42C183.508 11.0867 183.642 11.6733 183.908 12.18C184.188 12.6733 184.548 13.0533 184.988 13.32C185.442 13.5867 185.922 13.72 186.428 13.72C186.948 13.72 187.435 13.5933 187.888 13.34C188.342 13.0733 188.702 12.7 188.968 12.22C189.235 11.7267 189.368 11.14 189.368 10.46ZM196.343 3.6C195.85 3.6 195.436 3.44667 195.103 3.14C194.783 2.82 194.623 2.42667 194.623 1.96C194.623 1.49333 194.783 1.10667 195.103 0.799999C195.436 0.479999 195.85 0.319999 196.343 0.319999C196.836 0.319999 197.243 0.479999 197.563 0.799999C197.896 1.10667 198.063 1.49333 198.063 1.96C198.063 2.42667 197.896 2.82 197.563 3.14C197.243 3.44667 196.836 3.6 196.343 3.6ZM197.723 4.92V16H194.923V4.92H197.723ZM199.769 10.46C199.769 9.31333 200.003 8.31333 200.469 7.46C200.936 6.59333 201.583 5.92667 202.409 5.46C203.236 4.98 204.183 4.74 205.249 4.74C206.623 4.74 207.756 5.08667 208.649 5.78C209.556 6.46 210.163 7.42 210.469 8.66H207.449C207.289 8.18 207.016 7.80667 206.629 7.54C206.256 7.26 205.789 7.12 205.229 7.12C204.429 7.12 203.796 7.41333 203.329 8C202.863 8.57333 202.629 9.39333 202.629 10.46C202.629 11.5133 202.863 12.3333 203.329 12.92C203.796 13.4933 204.429 13.78 205.229 13.78C206.363 13.78 207.103 13.2733 207.449 12.26H210.469C210.163 13.46 209.556 14.4133 208.649 15.12C207.743 15.8267 206.609 16.18 205.249 16.18C204.183 16.18 203.236 15.9467 202.409 15.48C201.583 15 200.936 14.3333 200.469 13.48C200.003 12.6133 199.769 11.6067 199.769 10.46ZM211.801 10.42C211.801 9.3 212.021 8.30667 212.461 7.44C212.914 6.57333 213.521 5.90667 214.281 5.44C215.054 4.97333 215.914 4.74 216.861 4.74C217.687 4.74 218.407 4.90667 219.021 5.24C219.647 5.57333 220.147 5.99333 220.521 6.5V4.92H223.341V16H220.521V14.38C220.161 14.9 219.661 15.3333 219.021 15.68C218.394 16.0133 217.667 16.18 216.841 16.18C215.907 16.18 215.054 15.94 214.281 15.46C213.521 14.98 212.914 14.3067 212.461 13.44C212.021 12.56 211.801 11.5533 211.801 10.42ZM220.521 10.46C220.521 9.78 220.387 9.2 220.121 8.72C219.854 8.22667 219.494 7.85333 219.041 7.6C218.587 7.33333 218.101 7.2 217.581 7.2C217.061 7.2 216.581 7.32667 216.141 7.58C215.701 7.83333 215.341 8.20667 215.061 8.7C214.794 9.18 214.661 9.75333 214.661 10.42C214.661 11.0867 214.794 11.6733 215.061 12.18C215.341 12.6733 215.701 13.0533 216.141 13.32C216.594 13.5867 217.074 13.72 217.581 13.72C218.101 13.72 218.587 13.5933 219.041 13.34C219.494 13.0733 219.854 12.7 220.121 12.22C220.387 11.7267 220.521 11.14 220.521 10.46ZM228.875 1.2V16H226.075V1.2H228.875ZM54.3423 43.34H48.7823L47.8623 46H44.9223L49.9423 32.02H53.2023L58.2223 46H55.2623L54.3423 43.34ZM53.5823 41.1L51.5623 35.26L49.5423 41.1H53.5823ZM64.3388 46.18C63.4321 46.18 62.6188 46.02 61.8988 45.7C61.1788 45.3667 60.6054 44.92 60.1788 44.36C59.7654 43.8 59.5388 43.18 59.4988 42.5H62.3188C62.3721 42.9267 62.5788 43.28 62.9388 43.56C63.3121 43.84 63.7721 43.98 64.3188 43.98C64.8521 43.98 65.2654 43.8733 65.5588 43.66C65.8654 43.4467 66.0188 43.1733 66.0188 42.84C66.0188 42.48 65.8321 42.2133 65.4588 42.04C65.0988 41.8533 64.5188 41.6533 63.7188 41.44C62.8921 41.24 62.2121 41.0333 61.6788 40.82C61.1588 40.6067 60.7054 40.28 60.3188 39.84C59.9454 39.4 59.7588 38.8067 59.7588 38.06C59.7588 37.4467 59.9321 36.8867 60.2788 36.38C60.6388 35.8733 61.1454 35.4733 61.7988 35.18C62.4654 34.8867 63.2454 34.74 64.1388 34.74C65.4588 34.74 66.5121 35.0733 67.2988 35.74C68.0854 36.3933 68.5188 37.28 68.5988 38.4H65.9188C65.8788 37.96 65.6921 37.6133 65.3588 37.36C65.0388 37.0933 64.6054 36.96 64.0588 36.96C63.5521 36.96 63.1588 37.0533 62.8788 37.24C62.6121 37.4267 62.4788 37.6867 62.4788 38.02C62.4788 38.3933 62.6654 38.68 63.0388 38.88C63.4121 39.0667 63.9921 39.26 64.7788 39.46C65.5788 39.66 66.2388 39.8667 66.7588 40.08C67.2788 40.2933 67.7254 40.6267 68.0988 41.08C68.4854 41.52 68.6854 42.1067 68.6988 42.84C68.6988 43.48 68.5188 44.0533 68.1588 44.56C67.8121 45.0667 67.3054 45.4667 66.6388 45.76C65.9854 46.04 65.2188 46.18 64.3388 46.18ZM75.2372 46.18C74.3305 46.18 73.5172 46.02 72.7972 45.7C72.0772 45.3667 71.5039 44.92 71.0772 44.36C70.6639 43.8 70.4372 43.18 70.3972 42.5H73.2172C73.2705 42.9267 73.4772 43.28 73.8372 43.56C74.2105 43.84 74.6705 43.98 75.2172 43.98C75.7505 43.98 76.1639 43.8733 76.4572 43.66C76.7639 43.4467 76.9172 43.1733 76.9172 42.84C76.9172 42.48 76.7305 42.2133 76.3572 42.04C75.9972 41.8533 75.4172 41.6533 74.6172 41.44C73.7905 41.24 73.1105 41.0333 72.5772 40.82C72.0572 40.6067 71.6039 40.28 71.2172 39.84C70.8439 39.4 70.6572 38.8067 70.6572 38.06C70.6572 37.4467 70.8305 36.8867 71.1772 36.38C71.5372 35.8733 72.0439 35.4733 72.6972 35.18C73.3639 34.8867 74.1439 34.74 75.0372 34.74C76.3572 34.74 77.4105 35.0733 78.1972 35.74C78.9839 36.3933 79.4172 37.28 79.4972 38.4H76.8172C76.7772 37.96 76.5905 37.6133 76.2572 37.36C75.9372 37.0933 75.5039 36.96 74.9572 36.96C74.4505 36.96 74.0572 37.0533 73.7772 37.24C73.5105 37.4267 73.3772 37.6867 73.3772 38.02C73.3772 38.3933 73.5639 38.68 73.9372 38.88C74.3105 39.0667 74.8905 39.26 75.6772 39.46C76.4772 39.66 77.1372 39.8667 77.6572 40.08C78.1772 40.2933 78.6239 40.6267 78.9972 41.08C79.3839 41.52 79.5839 42.1067 79.5972 42.84C79.5972 43.48 79.4172 44.0533 79.0572 44.56C78.7105 45.0667 78.2039 45.4667 77.5372 45.76C76.8839 46.04 76.1172 46.18 75.2372 46.18ZM92.1956 40.22C92.1956 40.62 92.169 40.98 92.1156 41.3H84.0156C84.0823 42.1 84.3623 42.7267 84.8556 43.18C85.349 43.6333 85.9556 43.86 86.6756 43.86C87.7156 43.86 88.4556 43.4133 88.8956 42.52H91.9156C91.5956 43.5867 90.9823 44.4667 90.0756 45.16C89.169 45.84 88.0556 46.18 86.7356 46.18C85.669 46.18 84.709 45.9467 83.8556 45.48C83.0156 45 82.3556 44.3267 81.8756 43.46C81.409 42.5933 81.1756 41.5933 81.1756 40.46C81.1756 39.3133 81.409 38.3067 81.8756 37.44C82.3423 36.5733 82.9956 35.9067 83.8356 35.44C84.6756 34.9733 85.6423 34.74 86.7356 34.74C87.789 34.74 88.729 34.9667 89.5556 35.42C90.3956 35.8733 91.0423 36.52 91.4956 37.36C91.9623 38.1867 92.1956 39.14 92.1956 40.22ZM89.2956 39.42C89.2823 38.7 89.0223 38.1267 88.5156 37.7C88.009 37.26 87.389 37.04 86.6556 37.04C85.9623 37.04 85.3756 37.2533 84.8956 37.68C84.429 38.0933 84.1423 38.6733 84.0356 39.42H89.2956ZM98.4794 46.18C97.5727 46.18 96.7594 46.02 96.0394 45.7C95.3194 45.3667 94.746 44.92 94.3194 44.36C93.906 43.8 93.6794 43.18 93.6394 42.5H96.4594C96.5127 42.9267 96.7194 43.28 97.0794 43.56C97.4527 43.84 97.9127 43.98 98.4594 43.98C98.9927 43.98 99.406 43.8733 99.6994 43.66C100.006 43.4467 100.159 43.1733 100.159 42.84C100.159 42.48 99.9727 42.2133 99.5994 42.04C99.2394 41.8533 98.6594 41.6533 97.8594 41.44C97.0327 41.24 96.3527 41.0333 95.8194 40.82C95.2994 40.6067 94.846 40.28 94.4594 39.84C94.086 39.4 93.8994 38.8067 93.8994 38.06C93.8994 37.4467 94.0727 36.8867 94.4194 36.38C94.7794 35.8733 95.286 35.4733 95.9394 35.18C96.606 34.8867 97.386 34.74 98.2794 34.74C99.5994 34.74 100.653 35.0733 101.439 35.74C102.226 36.3933 102.659 37.28 102.739 38.4H100.059C100.019 37.96 99.8327 37.6133 99.4994 37.36C99.1794 37.0933 98.746 36.96 98.1994 36.96C97.6927 36.96 97.2994 37.0533 97.0194 37.24C96.7527 37.4267 96.6194 37.6867 96.6194 38.02C96.6194 38.3933 96.806 38.68 97.1794 38.88C97.5527 39.0667 98.1327 39.26 98.9194 39.46C99.7194 39.66 100.379 39.8667 100.899 40.08C101.419 40.2933 101.866 40.6267 102.239 41.08C102.626 41.52 102.826 42.1067 102.839 42.84C102.839 43.48 102.659 44.0533 102.299 44.56C101.953 45.0667 101.446 45.4667 100.779 45.76C100.126 46.04 99.3594 46.18 98.4794 46.18ZM109.378 46.18C108.471 46.18 107.658 46.02 106.938 45.7C106.218 45.3667 105.644 44.92 105.218 44.36C104.804 43.8 104.578 43.18 104.538 42.5H107.358C107.411 42.9267 107.618 43.28 107.978 43.56C108.351 43.84 108.811 43.98 109.358 43.98C109.891 43.98 110.304 43.8733 110.598 43.66C110.904 43.4467 111.058 43.1733 111.058 42.84C111.058 42.48 110.871 42.2133 110.498 42.04C110.138 41.8533 109.558 41.6533 108.758 41.44C107.931 41.24 107.251 41.0333 106.718 40.82C106.198 40.6067 105.744 40.28 105.358 39.84C104.984 39.4 104.798 38.8067 104.798 38.06C104.798 37.4467 104.971 36.8867 105.318 36.38C105.678 35.8733 106.184 35.4733 106.838 35.18C107.504 34.8867 108.284 34.74 109.178 34.74C110.498 34.74 111.551 35.0733 112.338 35.74C113.124 36.3933 113.558 37.28 113.638 38.4H110.958C110.918 37.96 110.731 37.6133 110.398 37.36C110.078 37.0933 109.644 36.96 109.098 36.96C108.591 36.96 108.198 37.0533 107.918 37.24C107.651 37.4267 107.518 37.6867 107.518 38.02C107.518 38.3933 107.704 38.68 108.078 38.88C108.451 39.0667 109.031 39.26 109.818 39.46C110.618 39.66 111.278 39.8667 111.798 40.08C112.318 40.2933 112.764 40.6267 113.138 41.08C113.524 41.52 113.724 42.1067 113.738 42.84C113.738 43.48 113.558 44.0533 113.198 44.56C112.851 45.0667 112.344 45.4667 111.678 45.76C111.024 46.04 110.258 46.18 109.378 46.18ZM129.796 34.76C131.156 34.76 132.25 35.18 133.076 36.02C133.916 36.8467 134.336 38.0067 134.336 39.5V46H131.536V39.88C131.536 39.0133 131.316 38.3533 130.876 37.9C130.436 37.4333 129.836 37.2 129.076 37.2C128.316 37.2 127.71 37.4333 127.256 37.9C126.816 38.3533 126.596 39.0133 126.596 39.88V46H123.796V39.88C123.796 39.0133 123.576 38.3533 123.136 37.9C122.696 37.4333 122.096 37.2 121.336 37.2C120.563 37.2 119.95 37.4333 119.496 37.9C119.056 38.3533 118.836 39.0133 118.836 39.88V46H116.036V34.92H118.836V36.26C119.196 35.7933 119.656 35.4267 120.216 35.16C120.79 34.8933 121.416 34.76 122.096 34.76C122.963 34.76 123.736 34.9467 124.416 35.32C125.096 35.68 125.623 36.2 125.996 36.88C126.356 36.24 126.876 35.7267 127.556 35.34C128.25 34.9533 128.996 34.76 129.796 34.76ZM147.293 40.22C147.293 40.62 147.267 40.98 147.213 41.3H139.113C139.18 42.1 139.46 42.7267 139.953 43.18C140.447 43.6333 141.053 43.86 141.773 43.86C142.813 43.86 143.553 43.4133 143.993 42.52H147.013C146.693 43.5867 146.08 44.4667 145.173 45.16C144.267 45.84 143.153 46.18 141.833 46.18C140.767 46.18 139.807 45.9467 138.953 45.48C138.113 45 137.453 44.3267 136.973 43.46C136.507 42.5933 136.273 41.5933 136.273 40.46C136.273 39.3133 136.507 38.3067 136.973 37.44C137.44 36.5733 138.093 35.9067 138.933 35.44C139.773 34.9733 140.74 34.74 141.833 34.74C142.887 34.74 143.827 34.9667 144.653 35.42C145.493 35.8733 146.14 36.52 146.593 37.36C147.06 38.1867 147.293 39.14 147.293 40.22ZM144.393 39.42C144.38 38.7 144.12 38.1267 143.613 37.7C143.107 37.26 142.487 37.04 141.753 37.04C141.06 37.04 140.473 37.2533 139.993 37.68C139.527 38.0933 139.24 38.6733 139.133 39.42H144.393ZM155.477 34.76C156.797 34.76 157.864 35.18 158.677 36.02C159.49 36.8467 159.897 38.0067 159.897 39.5V46H157.097V39.88C157.097 39 156.877 38.3267 156.437 37.86C155.997 37.38 155.397 37.14 154.637 37.14C153.864 37.14 153.25 37.38 152.797 37.86C152.357 38.3267 152.137 39 152.137 39.88V46H149.337V34.92H152.137V36.3C152.51 35.82 152.984 35.4467 153.557 35.18C154.144 34.9 154.784 34.76 155.477 34.76ZM165.82 37.22V42.58C165.82 42.9533 165.906 43.2267 166.08 43.4C166.266 43.56 166.573 43.64 167 43.64H168.3V46H166.54C164.18 46 163 44.8533 163 42.56V37.22H161.68V34.92H163V32.18H165.82V34.92H168.3V37.22H165.82ZM174.554 46.18C173.647 46.18 172.834 46.02 172.114 45.7C171.394 45.3667 170.82 44.92 170.394 44.36C169.98 43.8 169.754 43.18 169.714 42.5H172.534C172.587 42.9267 172.794 43.28 173.154 43.56C173.527 43.84 173.987 43.98 174.534 43.98C175.067 43.98 175.48 43.8733 175.774 43.66C176.08 43.4467 176.234 43.1733 176.234 42.84C176.234 42.48 176.047 42.2133 175.674 42.04C175.314 41.8533 174.734 41.6533 173.934 41.44C173.107 41.24 172.427 41.0333 171.894 40.82C171.374 40.6067 170.92 40.28 170.534 39.84C170.16 39.4 169.974 38.8067 169.974 38.06C169.974 37.4467 170.147 36.8867 170.494 36.38C170.854 35.8733 171.36 35.4733 172.014 35.18C172.68 34.8867 173.46 34.74 174.354 34.74C175.674 34.74 176.727 35.0733 177.514 35.74C178.3 36.3933 178.734 37.28 178.814 38.4H176.134C176.094 37.96 175.907 37.6133 175.574 37.36C175.254 37.0933 174.82 36.96 174.274 36.96C173.767 36.96 173.374 37.0533 173.094 37.24C172.827 37.4267 172.694 37.6867 172.694 38.02C172.694 38.3933 172.88 38.68 173.254 38.88C173.627 39.0667 174.207 39.26 174.994 39.46C175.794 39.66 176.454 39.8667 176.974 40.08C177.494 40.2933 177.94 40.6267 178.314 41.08C178.7 41.52 178.9 42.1067 178.914 42.84C178.914 43.48 178.734 44.0533 178.374 44.56C178.027 45.0667 177.52 45.4667 176.854 45.76C176.2 46.04 175.434 46.18 174.554 46.18Z" fill="white"/>
</svg>
