<svg width="512" height="498" viewBox="0 0 512 498" fill="none" xmlns="http://www.w3.org/2000/svg">
<path d="M191.146 4.59128C193.247 3.59039 197.349 1.98898 200.25 1.18827H200.15C204.552 -0.0127947 214.657 -0.212972 310.504 0.187382L316.507 2.6896C319.809 3.99075 324.311 6.49296 326.412 8.19447C328.613 9.79588 331.815 12.9987 333.516 15.2007C335.217 17.4026 337.618 21.9066 338.918 25.2095C340.619 29.6134 341.219 33.2166 341.219 38.7215C341.119 42.8251 340.519 48.0297 339.819 50.2317C339.018 52.4336 337.518 56.0368 336.317 58.2388C335.217 60.4407 332.315 64.2441 329.914 66.6462C327.513 69.0483 322.61 72.4513 319.009 74.1528C313.606 76.655 311.005 77.2556 294.997 77.756V237.898L297.198 237.297C298.498 236.997 303.701 234.795 308.703 232.293C315.607 229.09 319.909 226.087 325.112 221.183C329.013 217.38 333.716 212.375 335.517 209.873C337.318 207.371 340.719 201.766 342.92 197.362C345.221 192.958 348.623 184.651 350.524 178.845C352.325 173.04 354.826 163.432 355.927 157.326C357.027 151.221 358.428 139.31 359.028 130.803C359.729 121.495 359.929 108.884 359.528 99.2751C359.128 88.6657 359.328 80.7587 360.129 75.7542C360.729 71.6506 362.43 65.0448 363.731 61.2414C365.131 57.438 367.532 52.0333 369.133 49.2308C370.634 46.5284 374.136 41.524 376.837 38.221C379.438 34.9181 384.341 30.0138 387.542 27.4115C390.844 24.7091 397.147 20.8056 401.549 18.7038C405.951 16.6019 412.955 14.0997 417.057 13.1989C423.26 11.8977 429.663 11.5975 482.589 12.198L489.092 15.3008C492.694 17.0023 497.296 19.9048 499.497 21.8065C501.598 23.7082 504.6 27.2113 506.201 29.7135C507.801 32.2157 509.903 36.7197 510.703 39.7224C511.803 43.4256 512.204 47.8295 511.904 53.2343C511.603 59.64 510.903 62.5426 508.402 67.7472C506.401 72.051 503.499 75.8543 499.998 79.0572C496.996 81.7596 492.094 85.1626 489.092 86.5638C483.701 89.2605 483.191 89.2662 438.35 89.7635L438.067 89.7666L437.767 112.987C437.567 133.405 437.767 136.508 439.168 138.31C440.168 139.411 442.269 143.714 444.07 147.818C445.771 151.922 449.273 159.128 451.874 163.832C454.375 168.536 459.077 175.743 462.179 179.846C465.281 183.95 470.683 190.055 474.185 193.458C477.687 196.861 483.69 201.666 487.592 204.168C491.493 206.67 495.595 209.773 496.796 210.974C498.097 212.275 499.397 214.977 499.697 216.879C500.198 219.381 499.798 221.583 498.297 224.886C496.596 228.489 494.795 230.291 488.892 233.894C484.89 236.396 478.287 241.501 474.185 245.404C470.083 249.208 464.28 255.814 461.179 259.917C458.077 264.021 453.975 270.126 452.074 273.429C450.173 276.732 447.072 283.238 445.071 287.942C443.17 292.646 440.869 297.35 440.068 298.551C439.268 299.652 437.567 301.154 436.266 301.754C435.066 302.455 432.464 302.955 430.563 302.955C428.362 302.955 426.061 302.054 424.26 300.653C422.76 299.352 420.458 295.649 419.158 292.346C417.857 289.143 415.156 283.338 413.255 279.434C411.354 275.531 407.852 269.526 405.551 265.923C403.15 262.319 400.649 258.816 399.948 258.116C398.748 257.115 397.747 257.915 394.045 262.52C391.544 265.622 385.241 272.328 380.039 277.333C374.836 282.337 366.232 289.343 361.029 292.846C355.827 296.349 347.923 300.953 343.521 303.256C339.118 305.457 329.614 309.161 322.51 311.463C315.407 313.865 306.202 316.367 294.997 318.469V324.975C294.997 330.78 295.197 331.581 297.198 332.481C298.699 333.182 301.5 337.586 305.502 345.493C308.803 352.199 313.106 359.806 315.107 362.508C317.108 365.31 322.21 370.815 326.412 374.819C330.614 378.722 334.416 382.025 335.016 382.025C335.617 382.025 337.618 383.426 339.519 385.028C342.42 387.53 343.02 388.731 343.02 392.034C343.02 394.236 342.72 396.838 342.22 397.739C341.82 398.64 338.818 401.142 335.517 403.444C332.215 405.646 326.912 409.95 323.611 412.953C320.409 416.055 317.408 419.358 316.908 420.359C316.207 421.76 316.807 422.461 320.709 424.363C323.411 425.564 327.513 428.667 330.014 431.169C332.515 433.771 335.717 438.275 337.217 441.178C338.618 444.18 340.319 449.085 340.819 452.087C341.52 455.39 341.62 459.994 341.119 463.597C340.619 466.9 339.219 472.105 337.818 475.108C336.417 478.11 333.516 482.614 331.315 485.116C329.114 487.619 324.711 491.022 321.41 492.723C318.208 494.525 313.006 496.426 310.004 497.127C306.102 497.928 289.794 498.128 252.976 497.928C216.558 497.628 200.45 497.227 197.949 496.326C196.048 495.726 191.946 493.724 188.945 491.922C185.943 490.121 181.641 486.418 179.44 483.615C177.139 480.913 174.337 475.908 173.037 472.605C171.436 468.202 170.736 464.598 170.836 459.093C170.836 454.99 171.436 449.785 172.136 447.583C172.937 445.381 174.537 441.678 175.738 439.376C176.939 436.974 179.84 433.171 182.141 430.868C184.542 428.566 189.345 425.264 192.946 423.662C198.349 421.06 200.85 420.559 216.958 420.059V318.469L208.254 316.667C203.352 315.667 194.947 313.264 189.445 311.463C183.942 309.561 176.438 306.659 165.933 301.954L158.129 309.661C153.827 313.965 147.924 320.871 145.023 324.975C142.121 329.078 137.819 336.285 135.518 340.989C133.117 345.693 130.116 352.199 128.815 355.402C127.514 358.705 125.213 362.408 123.612 363.709C121.811 365.244 119.644 366.011 117.109 366.011C115.108 366.011 112.307 365.411 111.006 364.71C109.705 364.109 107.805 361.907 106.804 360.006C105.804 358.104 102.302 350.898 99.1003 343.992C95.7986 337.085 90.396 327.877 87.0944 323.473C83.7927 319.07 78.0899 312.564 74.2881 308.961C70.4862 305.357 63.983 300.253 59.981 297.45C55.879 294.748 51.6769 291.345 50.6764 289.944C49.6759 288.543 48.5754 285.84 48.2752 283.938C47.775 281.536 48.1752 279.234 49.4758 276.632C50.8765 273.729 53.2777 271.628 58.3802 268.425C62.1821 266.123 69.1855 260.618 73.7878 256.314C78.3901 251.91 84.1929 245.705 86.5941 242.402C89.0953 239.099 92.1969 234.495 95.8987 227.889L92.497 219.181C90.5961 214.277 88.1949 207.671 87.0944 204.368C85.9938 201.065 83.8928 193.859 82.4921 188.354C81.0914 182.849 79.0904 172.74 77.9899 165.834C76.8893 158.928 75.4887 148.118 74.8884 141.813C74.3881 135.507 73.8879 121.194 73.8879 89.7666L28.3654 89.2662L22.3625 86.3636C19.0609 84.6621 14.0584 81.2591 11.3571 78.6568C8.25555 75.7542 5.25407 71.6506 3.35313 67.6471C1.052 62.6426 0.351657 59.4398 0.0515091 53.2343C-0.148589 48.7303 0.251608 43.3256 0.951952 40.7233C1.6523 38.221 2.85289 34.818 3.65328 33.2166C4.45368 31.6152 6.75481 28.2122 8.75579 25.8101C10.7568 23.4079 14.5587 19.9048 17.36 18.2033C20.0614 16.4017 24.8637 14.1998 27.8652 13.299C32.3674 11.9978 38.3704 11.6976 60.5813 11.6976C81.7918 11.6976 89.4955 12.0979 95.0983 13.299C99.1003 14.1998 106.004 16.6019 110.406 18.7038C114.808 20.8056 121.111 24.7091 124.413 27.4115C127.614 30.0138 132.517 34.9181 135.218 38.221C137.819 41.524 142.021 48.2299 144.523 53.2343C146.924 58.2388 149.625 64.9447 150.526 68.2476C151.826 73.0519 152.226 80.2582 152.427 105.28C152.527 128.301 153.027 139.31 154.327 147.818C155.228 154.124 157.329 164.533 159.03 170.838C160.631 177.144 163.532 185.952 165.433 190.356C167.434 194.76 170.435 200.865 172.236 203.768C173.937 206.77 178.84 212.775 182.942 217.179C187.044 221.483 193.147 226.788 196.448 228.79C199.75 230.892 205.453 233.794 209.154 235.195C212.956 236.697 216.158 237.898 216.458 237.898C216.758 237.898 216.958 218.08 216.958 149.82H214.657C213.457 149.82 211.456 149.119 210.155 148.318C208.954 147.518 205.253 141.312 202.051 134.606C198.449 127.1 194.047 119.693 190.745 115.79C187.744 112.186 183.142 107.582 180.34 105.481C177.639 103.479 173.437 100.276 170.936 98.4743C168.334 96.5727 166.133 94.0704 165.633 92.2689C165.133 90.5674 164.933 88.0651 165.333 86.4637C165.733 84.7622 167.634 82.5603 170.635 80.4584C173.137 78.7569 177.439 75.5541 184.943 69.7489L180.841 65.5452C178.639 63.1431 175.738 59.2396 174.437 56.7374C173.137 54.2352 171.636 49.531 171.036 46.2281C170.235 42.0244 170.135 38.3211 170.936 33.7171C171.436 30.1139 173.237 24.5089 174.838 21.206C176.538 17.6028 179.64 13.4992 182.541 10.7968C185.243 8.49473 189.145 5.59216 191.146 4.59128Z" fill="#B2677C"/>
<path d="M187.644 12.6985C190.445 10.1963 194.747 7.49388 197.549 6.49299C201.851 5.09175 208.954 4.89158 254.977 4.79149C296.297 4.6914 308.503 4.99166 312.005 6.09264C314.506 6.79326 318.308 8.49476 320.509 9.896C322.71 11.2972 326.012 14.0997 327.913 16.3017C329.814 18.4035 332.415 22.5072 333.616 25.2096C334.816 28.012 336.117 32.516 336.517 35.2184C337.017 38.5213 336.617 42.3247 335.617 46.7286C334.616 50.632 332.415 55.4363 330.214 58.6391C328.213 61.5417 324.311 65.4452 321.51 67.2467C318.808 68.9483 314.907 70.95 313.006 71.6506C311.105 72.2512 306.002 72.7516 301.8 72.7516C297.498 72.7516 293.096 73.2521 291.995 73.7525C289.994 74.7534 289.994 75.7543 289.994 158.027C289.994 203.868 290.395 242.001 290.795 242.802C291.395 243.903 292.796 243.703 298.498 241.901C302.4 240.7 309.104 237.798 313.406 235.496C317.908 233.194 324.311 228.69 327.913 225.287C331.515 221.984 336.817 215.878 339.619 211.775C342.42 207.671 346.222 201.465 348.023 197.862C349.824 194.259 352.725 186.853 354.626 181.348C356.427 175.843 358.828 166.835 359.929 161.33C361.029 155.825 362.43 146.617 363.13 140.812C363.731 135.007 364.231 118.792 364.231 104.78C364.131 85.663 364.531 77.4558 365.632 72.2512C366.432 68.4478 368.333 62.3424 369.834 58.7392C371.334 55.136 374.636 49.3309 377.137 45.7277C379.638 42.1245 384.441 36.7197 387.742 33.7171C391.044 30.7144 397.347 26.4106 401.649 24.1086C405.951 21.8065 412.955 19.2042 417.057 18.3034C423.36 16.9022 429.163 16.6019 453.575 16.9022C480.688 17.2025 482.889 17.3026 487.091 19.3043C489.593 20.5054 493.795 23.408 496.396 25.8101C499.097 28.2122 502.399 32.4159 503.7 35.2184C505 37.9208 506.501 42.4248 507.001 45.2273C507.401 47.9297 507.401 52.834 506.901 55.9367C506.501 59.1396 505 63.8437 503.7 66.446C502.399 69.1484 499.097 73.3521 496.496 75.8544C493.595 78.5568 489.292 81.2591 485.891 82.5603C480.588 84.5621 478.287 84.7623 457.877 84.7623C445.571 84.7623 435.066 85.1626 434.365 85.563C433.465 86.0634 433.065 92.7693 432.564 134.306L430.063 134.706C428.663 134.907 426.562 135.807 425.261 136.708C423.86 137.609 421.259 142.413 418.758 148.318C416.557 153.823 412.855 161.43 410.754 165.334C408.553 169.137 404.851 175.042 402.55 178.345C400.249 181.648 394.246 188.154 389.443 192.858C384.541 197.562 377.337 203.467 373.335 205.869C369.433 208.372 365.431 211.574 364.631 213.076C363.731 214.677 363.03 217.179 363.03 218.881C363.03 220.482 363.731 223.385 364.531 225.086C365.531 227.288 368.733 230.191 374.236 233.894C378.838 236.897 385.541 242.202 396.047 251.91L391.344 258.116C388.643 261.519 382.84 267.924 378.438 272.428C373.936 276.832 366.732 283.038 362.43 286.14C358.028 289.243 349.824 294.348 344.021 297.35C338.218 300.353 328.113 304.657 321.51 306.859C314.907 309.061 305.402 311.563 300.499 312.564C295.597 313.565 291.195 314.766 290.795 315.366C290.395 315.967 289.994 320.07 289.994 324.474C289.994 329.879 289.494 332.982 288.494 333.983C287.793 334.783 285.592 339.087 283.791 343.491C281.89 347.895 278.389 354.601 275.887 358.504C273.386 362.408 268.884 368.113 265.882 371.316C262.881 374.519 257.378 379.223 253.476 381.825C249.674 384.427 245.873 387.83 245.272 389.332C244.272 391.334 244.272 393.035 244.972 395.537C245.773 398.34 247.473 400.041 253.276 403.845C257.178 406.547 263.381 411.852 266.883 415.655C270.285 419.458 274.887 425.464 277.088 429.067C279.189 432.67 282.09 438.475 283.491 442.078C284.992 445.682 286.993 449.485 288.093 450.586C289.294 451.787 291.395 452.588 293.396 452.588C295.197 452.588 297.498 451.887 298.498 451.086C299.399 450.286 302.4 445.081 305.002 439.576C307.703 434.071 310.404 428.667 311.205 427.666C312.505 425.764 312.605 425.764 317.008 427.866C319.509 429.067 323.311 431.469 325.512 433.371C327.913 435.372 330.914 439.576 333.015 443.68C336.017 449.685 336.417 451.587 336.417 458.093C336.517 463.097 335.817 467.501 334.516 471.104C333.316 474.407 330.814 478.611 327.913 481.613C325.012 484.816 321.01 487.719 310.504 492.623L257.979 492.923C218.659 493.124 204.352 492.923 200.95 492.023C198.449 491.322 194.847 489.821 192.947 488.72C191.046 487.719 187.544 484.916 185.143 482.714C182.842 480.412 179.74 475.908 178.239 472.605C176.138 467.801 175.638 465.099 175.638 459.093C175.638 453.889 176.238 449.885 177.739 446.082C179.04 442.679 181.741 438.675 184.742 435.573C187.344 432.77 191.846 429.467 194.547 428.066C198.449 426.164 201.451 425.564 208.954 425.264C214.157 425.063 219.259 424.463 220.26 423.962C221.861 423.162 221.961 419.559 221.961 369.714C221.961 340.489 221.561 315.967 221.16 315.266C220.76 314.666 217.359 313.565 213.457 312.964C209.655 312.264 201.351 310.162 195.248 308.36C189.045 306.458 180.941 303.556 170.435 298.852L175.438 295.749C178.239 294.148 181.341 291.545 182.341 290.144C183.442 288.643 184.442 285.64 184.742 283.438C185.043 280.836 184.642 278.334 183.542 276.432C182.641 274.73 178.84 271.527 174.638 268.925C170.736 266.523 163.332 260.418 158.329 255.413C153.027 250.209 146.624 242.602 143.322 237.397C140.02 232.493 135.518 224.586 133.317 219.882C131.016 215.178 128.015 208.872 126.614 205.869C125.013 202.466 123.012 199.864 121.511 199.063C120.111 198.463 117.609 197.862 115.909 197.862C114.208 197.862 111.807 198.863 110.406 200.064C109.105 201.365 106.204 206.67 104.103 211.875C102.002 217.079 99.9007 221.383 99.4005 221.383C98.9002 221.383 97.0993 217.78 95.3985 213.376C93.6977 208.972 90.8963 200.465 89.0954 194.359C87.3946 188.254 85.2935 179.746 84.4931 175.342C83.5927 170.938 82.192 162.631 81.2916 156.826C80.191 149.82 79.4907 136.208 79.1905 116.29C78.7903 95.4717 78.2901 86.0634 77.4897 85.563C76.8894 85.1626 66.3842 84.7623 54.1782 84.7623C33.6681 84.7623 31.367 84.5621 26.1644 82.5603C22.6627 81.2591 18.3606 78.5568 15.4591 75.8544C12.8579 73.3521 9.55623 69.1484 8.25559 66.446C6.95495 63.8437 5.45422 59.1396 5.05402 55.9367C4.55377 52.834 4.55377 47.9297 4.95397 45.2273C5.45422 42.4248 6.95495 37.9208 8.25559 35.2184C9.55623 32.4159 12.8579 28.2122 15.5592 25.8101C18.1605 23.408 22.3625 20.5054 24.8638 19.3043C29.0658 17.3026 31.2669 17.2025 58.3803 16.9022C82.7923 16.6019 88.5951 16.9022 94.8983 18.3034C99.0003 19.2042 106.004 21.8065 110.306 24.1086C114.608 26.4106 120.911 30.7144 124.213 33.7171C127.514 36.7197 132.417 42.3247 135.118 46.2281C137.819 50.0315 141.321 56.6374 142.822 60.741C144.423 64.8446 146.224 71.6507 146.924 75.7543C147.824 80.8588 148.024 88.0652 147.524 98.2742C147.224 106.481 147.424 120.294 147.924 128.801C148.525 137.309 149.625 148.619 150.526 153.823C151.426 159.028 153.227 167.636 154.628 172.84C155.928 178.045 158.63 186.152 160.631 190.856C162.632 195.56 166.133 202.466 168.334 206.37C170.736 210.473 176.138 217.079 181.441 222.384C188.344 229.39 192.346 232.393 198.449 235.596C202.851 237.798 209.655 240.7 213.457 241.901C219.159 243.703 220.56 243.903 221.16 242.802C221.561 242.001 221.961 219.582 221.961 144.315L227.363 133.305C230.465 127 235.167 119.393 238.369 115.489C241.47 111.786 246.173 107.082 248.774 104.98C251.475 102.978 255.777 99.7755 258.279 97.9739C262.081 95.3716 263.081 94.0705 263.581 90.9677C263.881 88.966 263.681 86.2636 263.081 84.9624C262.481 83.7614 260.08 81.5594 257.778 80.0581C255.377 78.5568 251.275 75.5541 248.574 73.2521C245.873 71.0501 241.57 66.5461 238.969 63.2432C236.368 59.9403 232.466 54.0351 230.165 50.2317C227.864 46.3282 225.062 40.5231 223.762 37.3203C222.161 33.1166 220.56 30.8145 218.459 29.5134C216.758 28.5125 214.557 28.012 213.457 28.3123C212.356 28.6126 210.655 29.6134 209.655 30.6143C208.754 31.5151 206.353 35.8189 204.452 40.2228C202.451 44.6267 199.45 50.632 197.649 53.5346C195.948 56.5373 193.047 60.5408 188.144 66.2459L184.042 61.7419C181.741 59.2397 178.94 54.7357 177.839 51.733C176.739 48.7304 175.538 44.2264 175.238 41.7242C174.938 39.0218 175.338 34.6179 176.338 30.9146C177.239 27.5116 179.04 23.0076 180.24 21.0058C181.541 18.904 184.843 15.2007 187.644 12.6985Z" fill="#D58D9F"/>
<path d="M206.753 45.7273C209.755 39.4218 212.756 33.9169 213.357 33.5165C213.957 33.1162 214.657 32.7158 214.957 32.7158C215.258 32.7158 216.158 33.4164 217.058 34.4173C217.959 35.4182 219.56 38.521 220.66 41.2233C221.861 44.0258 224.462 49.1303 226.463 52.7335C228.464 56.3367 231.666 61.2411 233.466 63.7433C235.267 66.2455 239.169 70.5493 242.071 73.3518C245.072 76.1543 250.075 80.1578 253.276 82.3597C256.478 84.4616 259.279 86.8637 259.479 87.5644C259.779 88.1649 259.679 89.6662 259.179 90.6671C258.779 91.7681 255.377 94.8708 251.475 97.5732C247.673 100.376 242.171 104.98 239.369 107.882C236.468 110.885 232.166 116.19 229.865 119.793C227.464 123.396 223.662 130.302 221.461 135.106C219.259 139.911 216.858 144.114 216.158 144.315C215.558 144.615 214.257 144.515 213.357 144.114C212.456 143.614 209.755 139.21 207.554 134.306C205.253 129.401 201.351 122.395 198.949 118.792C196.448 115.189 192.046 109.784 188.945 106.681C185.943 103.679 180.64 99.2747 177.139 96.9727C173.637 94.5705 170.636 91.7681 170.335 90.567C169.935 89.2659 169.935 87.6644 170.335 87.0639C170.636 86.3633 173.337 84.2614 176.138 82.3597C179.04 80.5582 183.642 77.0551 186.343 74.6529C189.045 72.2508 193.547 67.3465 196.248 63.7433C198.949 60.1401 203.652 52.0329 206.753 45.7273Z" fill="#B2C4FD"/>
<path d="M423.86 147.818C424.46 145.916 425.961 143.114 427.062 141.612V141.512C428.262 140.011 429.863 138.81 430.664 138.81C431.464 138.81 432.965 139.21 434.065 139.811C435.166 140.411 436.967 143.214 438.067 146.316C439.168 149.319 441.969 155.524 444.17 160.129C446.471 164.633 450.773 172.039 453.675 176.543C456.676 181.147 462.379 188.253 466.281 192.457C470.283 196.661 476.086 201.966 479.087 204.268C482.089 206.57 486.691 209.672 489.292 211.174C492.094 212.775 494.395 214.877 494.695 216.078C494.995 217.379 494.995 219.481 494.695 220.882C494.395 222.284 493.795 223.885 493.394 224.486C492.894 225.086 489.092 227.889 484.79 230.691C480.588 233.594 473.885 238.898 469.883 242.602C465.981 246.405 460.478 252.51 457.577 256.414C454.775 260.317 450.573 266.523 448.272 270.426C445.971 274.33 442.369 281.736 440.268 286.941C437.167 294.547 435.866 296.649 433.665 297.45C431.931 298.117 430.197 298.117 428.462 297.45C426.562 296.649 424.961 294.247 421.759 286.44C419.358 280.935 415.956 273.729 414.055 270.426C412.154 267.123 408.052 261.018 404.951 256.914C401.849 252.811 396.047 246.205 391.944 242.401C387.842 238.598 381.139 233.093 377.037 230.391C372.535 227.388 369.033 224.185 368.133 222.384C367.232 220.382 367.032 218.58 367.633 216.979C368.133 215.478 372.235 212.075 377.537 208.471C382.44 205.068 390.144 198.763 394.546 194.359C398.948 189.955 405.351 182.248 408.653 177.344C411.954 172.439 416.457 164.532 418.758 159.828C420.959 155.124 423.26 149.719 423.86 147.818Z" fill="#B2C4FD"/>
<path d="M107.404 215.478C109.906 209.372 112.707 203.867 113.708 203.167C114.608 202.566 115.809 201.966 116.409 201.966C116.909 201.966 118.31 202.566 119.41 203.267C120.511 204.067 122.512 207.27 123.812 210.573C125.113 213.776 127.915 219.881 129.915 223.985C132.017 228.089 136.419 235.595 139.72 240.5C143.022 245.404 149.225 253.111 153.527 257.615C157.929 262.019 165.433 268.324 170.335 271.627C176.638 275.731 179.54 278.333 180.14 280.235C180.64 282.036 180.54 284.038 179.74 285.74C179.04 287.241 175.738 290.244 172.436 292.446C169.135 294.547 163.932 298.451 160.931 300.953C157.829 303.455 152.527 308.66 149.025 312.563C145.523 316.467 140.721 322.472 138.42 326.075C136.018 329.679 131.816 337.285 129.015 343.09C126.214 348.896 123.913 354 123.913 354.601C123.913 355.201 123.112 356.803 121.912 358.304C120.511 360.306 119.01 361.106 116.909 361.106C115.308 361.106 113.207 360.306 112.407 359.305C111.606 358.404 108.805 353.099 106.404 347.594C103.903 342.09 100.101 334.683 97.9998 331.08C95.8987 327.477 91.4966 321.171 88.195 317.067C84.8933 312.964 79.5907 307.159 76.2891 304.256C73.0875 301.354 66.8845 296.549 62.6824 293.747C58.4803 290.844 54.4784 287.541 53.8781 286.24C53.3778 285.039 52.8776 283.037 52.8776 281.736C52.8776 280.535 53.3778 278.834 54.0782 277.933C54.7785 277.032 58.5804 274.33 62.3822 271.827C66.2842 269.425 72.6873 264.321 76.7893 260.417C80.7913 256.614 86.294 250.809 88.8953 247.506C91.4966 244.203 95.6986 238.098 98.1999 233.994C100.701 229.89 104.903 221.583 107.404 215.478Z" fill="#B2C4FD"/>
<path d="M288.994 342.09C289.694 340.188 290.795 337.986 291.295 337.385C291.795 336.685 293.096 336.084 294.096 336.084C295.297 336.084 296.397 337.185 297.198 339.387C297.798 341.089 300.499 346.894 303.101 352.098C305.702 357.303 310.404 364.91 313.706 369.013C316.908 373.117 322.01 378.522 325.012 380.924C328.013 383.326 332.215 386.329 334.316 387.43C337.418 389.331 338.018 390.132 338.018 392.935C338.018 395.837 337.218 396.638 330.314 401.542C326.012 404.445 320.409 409.049 317.908 411.751C315.407 414.454 311.105 420.059 308.503 424.162C305.802 428.266 302.2 434.872 300.6 438.875C298.899 442.779 297.098 446.582 296.497 447.183C295.997 447.883 294.396 448.183 292.996 447.883C290.995 447.383 289.894 445.881 287.793 440.477C286.292 436.773 282.391 429.567 279.089 424.663C275.887 419.758 270.785 413.353 267.883 410.45C264.882 407.648 259.579 403.043 255.978 400.441C251.075 396.738 249.374 394.936 249.274 392.834C248.974 390.532 249.875 389.532 255.277 385.928C258.679 383.626 263.681 379.723 266.383 377.121C268.984 374.618 273.386 369.714 275.987 366.111C278.589 362.508 282.291 356.502 284.191 352.599C286.092 348.695 288.293 343.991 288.994 342.09Z" fill="#B2C4FD"/>
</svg>
